<?xml version="1.0" encoding="utf-8"?>
<!-- Generator: Adobe Illustrator 25.4.1, SVG Export Plug-In . SVG Version: 6.00 Build 0)  -->
<svg version="1.1" baseProfile="basic" xmlns="http://www.w3.org/2000/svg" xmlns:xlink="http://www.w3.org/1999/xlink" x="0px"
	 y="0px" width="320px" height="385.517px" viewBox="0 0 320 385.517" xml:space="preserve">
<style type="text/css">
	.st0{fill:#FFFFFF;}
	.st1{fill:#D0E2F3;}
	.st2{fill:#CEE0F1;}
	.st3{fill:none;stroke:#004B8C;stroke-linecap:round;stroke-linejoin:round;stroke-miterlimit:10;}
	.st4{fill:none;stroke:#D7D7D7;stroke-linecap:round;stroke-miterlimit:10;}
	.st5{fill:#004B8C;stroke:#004B8C;stroke-linecap:round;stroke-linejoin:round;stroke-miterlimit:10;}
	.st6{fill:#FFFFFF;stroke:#004B8C;stroke-linecap:round;stroke-linejoin:round;stroke-miterlimit:10;}
	.st7{fill:none;stroke:#004B8A;stroke-linecap:round;stroke-linejoin:round;stroke-miterlimit:10;}
	.st8{fill:#004B8A;}
	.st9{fill:none;stroke:#004B8C;stroke-linecap:round;stroke-linejoin:round;}
	.st10{fill:none;stroke:#004B8C;stroke-linecap:round;stroke-linejoin:round;stroke-dasharray:0.0888,2.6634,0.0888,2.6634;}
	.st11{fill:none;stroke:#004B8C;stroke-linecap:round;stroke-linejoin:round;stroke-dasharray:0.1111,3.333,0.1111,3.333;}
	
		.st12{fill:none;stroke:#004B8C;stroke-linecap:round;stroke-linejoin:round;stroke-dasharray:0.1111,3.333,0.1111,3.333,0.1111,3.333;}
	.st13{fill:#D0E2F3;stroke:#004B8C;stroke-linecap:round;stroke-linejoin:round;stroke-miterlimit:10;}
	.st14{fill:none;}
	.st15{fill:none;stroke:#004B8C;stroke-miterlimit:10;}
	.st16{fill:#FFFFFF;stroke:#004B8C;stroke-miterlimit:10;}
	.st17{fill:#1B4B84;}
	.st18{fill:#404040;}
	.st19{fill:#929292;}
	.st20{fill:#FAD9D1;}
	.st21{fill:#004B8C;}
	.st22{fill:#E6411A;}
	.st23{fill:#9C851B;}
	.st24{fill:none;stroke:#E6411A;stroke-linecap:round;stroke-linejoin:round;stroke-miterlimit:10;}
	.st25{opacity:0.2;fill:#156CC4;}
	.st26{fill:#FBDD32;}
	.st27{fill:#FDEB84;}
	.st28{fill:none;stroke:#FFFFFF;stroke-linecap:round;stroke-linejoin:round;stroke-miterlimit:10;}
	.st29{fill:#FBDD32;stroke:#004B8C;stroke-linecap:round;stroke-linejoin:round;stroke-miterlimit:10;}
	.st30{fill:none;stroke:#D0E2F3;stroke-linecap:round;stroke-miterlimit:10;}
	.st31{fill:none;stroke:#D0E2F3;stroke-linecap:round;stroke-miterlimit:10;stroke-dasharray:2.0306,2.0306;}
	.st32{fill:none;stroke:#FFFFFF;stroke-linecap:round;stroke-linejoin:round;stroke-miterlimit:10;stroke-dasharray:2,2;}
	.st33{fill:none;stroke:#004B8C;stroke-linecap:round;stroke-miterlimit:10;}
	.st34{fill:none;stroke:#004B8C;stroke-linejoin:round;stroke-miterlimit:10;}
	.st35{fill:none;stroke:#004B90;stroke-linecap:round;stroke-linejoin:round;stroke-miterlimit:10;}
	.st36{fill:#CBE1F4;}
	.st37{fill:none;stroke:#004B90;stroke-miterlimit:10;}
	.st38{fill:#004B90;}
	.st39{fill:#FFFFFF;stroke:#004B90;stroke-linecap:round;stroke-linejoin:round;stroke-miterlimit:10;}
	.st40{fill:none;stroke:#004B90;stroke-width:0.8;stroke-linecap:round;stroke-linejoin:round;stroke-miterlimit:10;}
	.st41{fill:none;stroke:#D6D6D6;stroke-linecap:round;stroke-miterlimit:10;}
	.st42{fill:none;stroke:#D0E2F3;stroke-linecap:round;stroke-linejoin:round;stroke-miterlimit:10;}
	.st43{fill:none;stroke:#004B8C;stroke-width:0.5;stroke-linecap:round;stroke-linejoin:round;stroke-miterlimit:10;}
	.st44{fill:#D7D7D7;stroke:#D7D7D7;stroke-linecap:round;stroke-linejoin:round;stroke-miterlimit:10;}
</style>
<g id="Text">
</g>
<g id="Umsetzung">
	<polyline class="st3" points="124.032,340.92 134.535,343.577 146.138,335.984 157.742,348.41 169.345,347.259 180.949,356.561 
		192.552,350.129 204.156,362.427 	"/>
	<g>
		<rect x="102.091" y="273.117" class="st0" width="8.268" height="41.318"/>
		<g>
			<polyline class="st9" points="102.091,273.167 102.091,273.116 102.141,273.116 			"/>
			<line class="st10" x1="104.804" y1="273.116" x2="108.977" y2="273.116"/>
			<polyline class="st9" points="110.308,273.116 110.358,273.116 110.358,273.167 			"/>
			<line class="st11" x1="110.358" y1="276.5" x2="110.358" y2="281.721"/>
			<line class="st12" x1="110.358" y1="283.388" x2="110.358" y2="312.718"/>
			<polyline class="st9" points="110.358,314.385 110.358,314.435 110.308,314.435 			"/>
			<line class="st10" x1="107.645" y1="314.435" x2="103.472" y2="314.435"/>
			<polyline class="st9" points="102.141,314.435 102.091,314.435 102.091,314.385 			"/>
			<line class="st11" x1="102.091" y1="311.052" x2="102.091" y2="305.83"/>
			<line class="st12" x1="102.091" y1="304.163" x2="102.091" y2="274.833"/>
		</g>
	</g>
	<rect x="102.091" y="258.906" class="st6" width="8.268" height="14.211"/>
	<rect x="72.916" y="273.117" class="st13" width="8.268" height="41.318"/>
	<line class="st3" x1="81.184" y1="273.198" x2="102.091" y2="258.906"/>
	<line class="st3" x1="81.184" y1="273.117" x2="102.091" y2="273.117"/>
	<g>
		<path class="st0" d="M78.436,123.708H68.368V80.561h5.753c0.132,0,0.257-0.024,0.379-0.057h0.185l0.056-0.089
			c0.482-0.233,0.818-0.722,0.818-1.292v-2.876c0-0.161-0.029-0.33-0.071-0.501l-0.005-0.26l-0.684-1.483L42.663,58.425
			c-0.413-0.202-1.005-0.319-1.622-0.319c-0.617,0-1.208,0.117-1.622,0.319L8.059,73.786c-0.818,0.4-1.535,1.55-1.535,2.46v2.876
			c0,0.793,0.645,1.438,1.438,1.438h5.753v43.147H3.648c-0.793,0-1.438,0.645-1.438,1.438v7.191c0,0.793,0.645,1.438,1.438,1.438
			h23.012v0c0,0.346,0.128,0.66,0.332,0.908v0.41h0.533c0.176,0.077,0.369,0.121,0.573,0.121h25.888
			c0.204,0,0.397-0.044,0.573-0.121h0.452v-0.311c0.255-0.26,0.413-0.614,0.413-1.006v0l1.66,0.063v-0.063h21.352
			c0.793,0,1.438-0.645,1.438-1.438v-7.191C79.874,124.353,79.229,123.708,78.436,123.708z M20.906,123.708V80.561h5.753v0.285
			h-0.101v1.14h0.101v41.721H20.906z M55.424,123.708v-0.095h0.101V80.618h-0.101v-0.057h5.753v43.147H55.424z"/>
		<g>
			<rect x="35.502" y="102.286" class="st1" width="10.634" height="2.129"/>
			<rect x="44.197" y="102.384" class="st1" width="2.319" height="19.556"/>
			<rect x="61.341" y="80.846" class="st1" width="5.474" height="1.14"/>
			<rect x="26.558" y="80.846" class="st1" width="27.589" height="1.14"/>
			<rect x="13.785" y="80.846" class="st1" width="5.474" height="1.14"/>
			<rect x="32.602" y="125.552" class="st1" width="16.798" height="0.912"/>
			<rect x="29.95" y="129.999" class="st1" width="22.102" height="0.912"/>
			<rect x="26.991" y="134.181" class="st1" width="28.019" height="0.912"/>
			<path class="st1" d="M41.042,58.107l1.622,0.319l32.135,15.578l0.684,1.483l0.076,3.637l-0.874,1.381h-1.86v-3.106
				c0-1.172-0.662-2.243-1.71-2.767L38.701,59.145L41.042,58.107z"/>
			<path class="st1" d="M49.671,123.708l-0.114,2.148l-0.608,0.912l2.161-0.184l0.957,0.488l0.532,1.369l-0.152,1.521l-0.532,1.064
				l2.585-0.076l0.684,0.608l0.241,2.218l1.66,0.063v-2.676c0-0.831-0.674-1.505-1.505-1.505h-0.775v-2.129
				c0-0.798-0.647-1.444-1.444-1.444h-0.685v-2.357C52.674,123.727,49.528,123.565,49.671,123.708z"/>
			<rect x="65.903" y="80.618" class="st1" width="2.395" height="42.995"/>
			<rect x="53.13" y="80.618" class="st1" width="2.395" height="42.995"/>
			<rect x="18.309" y="80.618" class="st1" width="2.395" height="42.995"/>
			<path id="Fill-21_00000006667294153976564250000003288248328946979714_" class="st3" d="M7.962,80.561
				c-0.793,0-1.438-0.645-1.438-1.438v-2.876c0-0.91,0.717-2.06,1.535-2.46L39.42,58.425c0.413-0.202,1.005-0.319,1.622-0.319
				s1.208,0.116,1.622,0.319l31.361,15.361c0.818,0.4,1.535,1.55,1.535,2.46v2.876c0,0.793-0.645,1.438-1.438,1.438H7.962z"/>
			<polygon class="st3" points="68.368,123.708 68.368,123.708 68.368,80.561 61.177,80.561 61.177,123.708 61.177,123.708 			"/>
			<polygon class="st3" points="20.906,123.708 20.906,123.708 20.906,80.561 13.715,80.561 13.715,123.708 13.715,123.708 			"/>
			<path id="Fill-17_00000070097497108320431610000008083030678767322790_" class="st3" d="M30.974,130.899
				c-0.793,0-1.438-0.645-1.438-1.438v-1.438c0-0.793,0.645-1.438,1.438-1.438h20.135c0.793,0,1.438,0.645,1.438,1.438v1.438
				c0,0.793-0.645,1.438-1.438,1.438H30.974z"/>
			<path id="Fill-37_00000160905367752583624020000015098870349695423109_" class="st3" d="M28.098,135.214
				c-0.793,0-1.438-0.645-1.438-1.438v-1.438c0-0.793,0.645-1.438,1.438-1.438h25.888c0.793,0,1.438,0.645,1.438,1.438v1.438
				c0,0.793-0.645,1.438-1.438,1.438H28.098z"/>
			<path class="st3" d="M78.436,123.708H49.671l0,0v1.438c0,0.793-0.645,1.438-1.438,1.438H33.85c-0.793,0-1.438-0.645-1.438-1.438
				v-1.438l0,0H3.648c-0.793,0-1.438,0.645-1.438,1.438v7.191c0,0.793,0.645,1.438,1.438,1.438h23.012v-1.438
				c0-0.793,0.645-1.438,1.438-1.438h25.888c0.793,0,1.438,0.645,1.438,1.438v1.438h23.012c0.793,0,1.438-0.645,1.438-1.438v-7.191
				C79.874,124.353,79.229,123.708,78.436,123.708z"/>
			<path class="st3" d="M46.795,103.573c0-0.793-0.645-1.438-1.438-1.438h-8.629c-0.793,0-1.438,0.645-1.438,1.438v18.697h11.506
				V103.573z"/>
			<path class="st3" d="M26.659,80.561v43.147h5.753c0-0.793,0.645-1.438,1.438-1.438h14.382c0.793,0,1.438,0.645,1.438,1.438h5.753
				V80.561H26.659z"/>
		</g>
		<rect x="29.845" y="84.63" class="st3" width="22.394" height="14.013"/>
		<polyline class="st3" points="31.921,95.852 34.876,90.597 37.175,94.866 42.265,89.612 46.206,92.239 49.983,87.642 		"/>
		<g>
			<path class="st8" d="M29.138,70.808h1.791c0.697,0,1.215,0.104,1.554,0.311c0.338,0.207,0.507,0.53,0.507,0.967
				c0,0.288-0.074,0.534-0.221,0.737c-0.147,0.204-0.342,0.335-0.583,0.394v0.035c0.318,0.084,0.549,0.225,0.692,0.421
				c0.143,0.197,0.214,0.452,0.214,0.766c0,0.466-0.175,0.833-0.525,1.101c-0.35,0.269-0.827,0.402-1.431,0.402h-1.998V70.808z
				 M30.525,72.778h0.417c0.199,0,0.353-0.041,0.462-0.123c0.109-0.082,0.163-0.204,0.163-0.365c0-0.288-0.217-0.432-0.653-0.432
				h-0.39V72.778z M30.525,73.793v1.078h0.488c0.433,0,0.65-0.182,0.65-0.547c0-0.171-0.058-0.302-0.174-0.393
				c-0.116-0.092-0.284-0.137-0.504-0.137H30.525z"/>
			<path class="st8" d="M38.787,73.368c0,0.864-0.212,1.52-0.636,1.97s-1.044,0.674-1.861,0.674c-0.805,0-1.423-0.226-1.853-0.678
				c-0.429-0.452-0.644-1.109-0.644-1.974c0-0.854,0.213-1.507,0.641-1.957c0.427-0.451,1.048-0.676,1.863-0.676
				c0.817,0,1.436,0.224,1.857,0.67C38.576,71.845,38.787,72.502,38.787,73.368z M34.844,69.793c0-0.175,0.054-0.312,0.162-0.409
				c0.107-0.097,0.253-0.146,0.436-0.146c0.185,0,0.332,0.05,0.44,0.149s0.163,0.234,0.163,0.405c0,0.167-0.054,0.299-0.163,0.398
				c-0.109,0.1-0.256,0.149-0.44,0.149c-0.183,0-0.328-0.048-0.436-0.144C34.897,70.101,34.844,69.966,34.844,69.793z
				 M35.254,73.368c0,0.993,0.345,1.489,1.036,1.489c0.351,0,0.611-0.121,0.781-0.361c0.169-0.241,0.254-0.617,0.254-1.127
				c0-0.513-0.086-0.891-0.258-1.136c-0.172-0.244-0.429-0.367-0.771-0.367C35.602,71.865,35.254,72.366,35.254,73.368z
				 M36.526,69.793c0-0.175,0.054-0.312,0.161-0.409c0.108-0.097,0.255-0.146,0.442-0.146c0.188,0,0.335,0.051,0.444,0.151
				s0.164,0.235,0.164,0.403c0,0.167-0.055,0.299-0.164,0.398c-0.109,0.1-0.257,0.149-0.444,0.149c-0.189,0-0.337-0.049-0.444-0.146
				C36.579,70.098,36.526,69.964,36.526,69.793z"/>
			<path class="st8" d="M41.101,74.073v1.868h-1.387v-5.134h1.682c1.395,0,2.093,0.506,2.093,1.517c0,0.595-0.291,1.055-0.871,1.38
				l1.496,2.237h-1.573l-1.088-1.868H41.101z M41.101,73.03h0.26c0.484,0,0.727-0.214,0.727-0.643c0-0.354-0.237-0.53-0.712-0.53
				h-0.274V73.03z"/>
			<path class="st8" d="M47.938,74.382c0,0.318-0.081,0.601-0.242,0.848s-0.395,0.438-0.699,0.576
				c-0.305,0.137-0.662,0.206-1.071,0.206c-0.342,0-0.628-0.024-0.86-0.072c-0.232-0.048-0.473-0.132-0.724-0.251v-1.236
				c0.265,0.136,0.54,0.242,0.825,0.318s0.548,0.114,0.787,0.114c0.206,0,0.357-0.036,0.453-0.107
				c0.096-0.071,0.144-0.163,0.144-0.275c0-0.07-0.019-0.132-0.058-0.185s-0.101-0.106-0.186-0.16
				c-0.085-0.054-0.313-0.164-0.683-0.33c-0.335-0.152-0.586-0.299-0.753-0.442c-0.167-0.143-0.291-0.307-0.372-0.492
				c-0.081-0.185-0.121-0.404-0.121-0.656c0-0.473,0.172-0.842,0.516-1.106s0.817-0.396,1.418-0.396
				c0.532,0,1.073,0.123,1.626,0.368l-0.425,1.071c-0.48-0.22-0.895-0.33-1.243-0.33c-0.18,0-0.312,0.031-0.393,0.095
				c-0.082,0.063-0.123,0.142-0.123,0.235c0,0.101,0.052,0.19,0.156,0.271c0.104,0.079,0.387,0.225,0.848,0.436
				c0.442,0.199,0.75,0.412,0.921,0.641C47.852,73.749,47.938,74.036,47.938,74.382z"/>
			<path class="st8" d="M51.779,75.942h-3.048v-5.134h3.048v1.113h-1.661v0.808h1.538v1.113h-1.538v0.969h1.661V75.942z"/>
		</g>
	</g>
	<g>
		<rect x="67.028" y="34.072" class="st0" width="39.613" height="52.372"/>
		<path class="st1" d="M74.193,69.496c0,0,20.062-0.86,21.474-0.046c1.411,0.815,1.266,11.776,1.266,11.776h2.542V66.537H74.193
			V69.496z"/>
		<g>
			<path class="st8" d="M77.736,48.637l-0.342-1.301h-2.256l-0.352,1.301h-2.062l2.266-6.973h2.503l2.295,6.973H77.736z
				 M77.005,45.797l-0.299-1.14c-0.069-0.253-0.154-0.581-0.254-0.983s-0.166-0.69-0.197-0.865
				c-0.028,0.162-0.085,0.427-0.169,0.798c-0.084,0.37-0.27,1.1-0.558,2.189H77.005z"/>
			<path class="st8" d="M86.472,48.637h-2.118l-1.373-2.655l-0.556,0.333v2.323h-1.886v-6.944h1.886v3.016
				c0.096-0.187,0.287-0.482,0.575-0.888l1.458-2.128h2.052l-2.189,3.111L86.472,48.637z"/>
			<path class="st8" d="M90.286,48.637h-1.877v-5.41h-1.695v-1.534h5.263v1.534h-1.69V48.637z"/>
			<path class="st8" d="M92.969,48.637v-6.944h1.886v6.944H92.969z"/>
			<path class="st8" d="M100.479,48.637h-4.123v-6.944h4.123v1.506h-2.246v1.092h2.08v1.506h-2.08v1.311h2.246V48.637z"/>
		</g>
		<rect x="74.193" y="66.537" class="st14" width="25.282" height="14.689"/>
		<rect x="74.193" y="66.537" class="st3" width="25.282" height="14.689"/>
		<polyline class="st3" points="77.864,78.592 83.58,72.873 85.93,75.224 88.064,73.119 90.765,75.821 96.235,70.175 		"/>
		<path class="st1" d="M66.806,37.52c8.433,0.496,16.867-0.422,25.315-0.422c7.355,0,9.443,0.476,10.563,1.267
			c1.221,0.862,1.088,10.863,0.804,15.135c-0.458,6.898-0.701,28.834-0.132,32.908h3.45V34.228H67.067v3.181"/>
		<rect x="67.028" y="34.072" class="st3" width="39.613" height="52.372"/>
		<line class="st3" x1="72.105" y1="53.208" x2="101.564" y2="53.208"/>
		<line class="st3" x1="72.105" y1="57.413" x2="101.564" y2="57.413"/>
	</g>
	<g>
		<g>
			<g>
				<rect x="261.007" y="140.621" class="st0" width="32.578" height="43.071"/>
				<path class="st1" d="M260.824,143.456c6.935,0.408,13.872-0.347,20.819-0.347c6.049,0,7.766,0.392,8.687,1.042
					c1.004,0.709,0.895,8.934,0.661,12.447c-0.377,5.673-0.577,23.713-0.109,27.063h2.837v-42.912h-32.681v2.616"/>
				<rect x="261.007" y="140.621" class="st3" width="32.578" height="43.071"/>
			</g>
			<g>
				<rect x="261.007" y="145.851" class="st0" width="32.578" height="43.071"/>
				<path class="st1" d="M260.824,148.686c6.935,0.408,13.872-0.347,20.819-0.347c6.049,0,7.766,0.392,8.687,1.042
					c1.004,0.709,0.895,8.934,0.661,12.447c-0.377,5.673-0.577,23.713-0.109,27.063h2.837v-42.912h-32.681v2.616"/>
				<rect x="261.007" y="145.851" class="st3" width="32.578" height="43.071"/>
			</g>
			<g>
				<rect x="261.007" y="151.08" class="st0" width="32.578" height="43.071"/>
				<path class="st1" d="M260.824,153.916c6.935,0.408,13.872-0.347,20.819-0.347c6.049,0,7.766,0.392,8.687,1.042
					c1.004,0.709,0.895,8.934,0.661,12.447c-0.377,5.673-0.577,23.713-0.109,27.063h2.837v-42.912h-32.681v2.616"/>
				<rect x="261.007" y="151.08" class="st3" width="32.578" height="43.071"/>
			</g>
			<g>
				<rect x="261.007" y="156.31" class="st0" width="32.578" height="43.071"/>
				<path class="st1" d="M260.824,159.146c6.935,0.408,13.872-0.347,20.819-0.347c6.049,0,7.766,0.392,8.687,1.042
					c1.004,0.709,0.895,8.934,0.661,12.447c-0.377,5.673-0.577,23.713-0.109,27.063h2.837v-42.912h-32.681v2.616"/>
				<rect x="261.007" y="156.31" class="st3" width="32.578" height="43.071"/>
			</g>
			<g>
				<rect x="261.007" y="161.54" class="st0" width="32.578" height="43.071"/>
				<path class="st1" d="M260.824,164.376c6.935,0.408,13.872-0.347,20.819-0.347c6.049,0,7.766,0.392,8.687,1.042
					c1.004,0.709,0.895,8.934,0.661,12.447c-0.377,5.673-0.577,23.713-0.109,27.063h2.837v-42.912h-32.681v2.616"/>
				<rect x="261.007" y="161.54" class="st3" width="32.578" height="43.071"/>
			</g>
		</g>
		<g>
			<rect x="274.039" y="163.195" class="st0" width="6.466" height="42.37"/>
			<rect x="274.039" y="139.033" class="st0" width="6.466" height="24.161"/>
			<path class="st1" d="M274.218,141.916c0.996-0.501,2.27-0.063,3.024,0.755c0.754,0.818,0.631,14.497,2.123,20.01
				c0.791,0.078,0.073,0.256,0.819,0.53c0.025-0.482,0.119-0.961,0.144-1.444v-22.716h-6.166v2.436"/>
			<path class="st1" d="M274.218,166.06c0.996-0.501,2.27-0.063,3.024,0.755c0.754,0.818,0.631,32.973,2.123,38.485
				c0.791,0.078,0.073,0.256,0.819,0.53c0.025-0.482,0.119-19.437,0.144-19.919v-22.716h-6.166v2.436"/>
			<rect x="274.039" y="139.033" class="st3" width="6.466" height="24.161"/>
			<rect x="274.039" y="163.195" class="st3" width="6.466" height="42.37"/>
		</g>
	</g>
	<g>
		<g>
			<g>
				<rect x="15.655" y="179.08" class="st0" width="32.578" height="43.071"/>
				<path class="st1" d="M21.548,208.212c0,0,16.499-0.708,17.66-0.037s1.041,9.685,1.041,9.685h2.091v-12.08H21.548V208.212z"/>
				<g>
					<path class="st8" d="M24.462,191.058l-0.281-1.07h-1.855l-0.289,1.07h-1.695l1.863-5.734h2.059l1.887,5.734H24.462z
						 M23.86,188.722l-0.246-0.938c-0.057-0.208-0.127-0.478-0.209-0.809c-0.082-0.331-0.136-0.567-0.162-0.711
						c-0.023,0.133-0.07,0.352-0.139,0.656s-0.222,0.905-0.459,1.801H23.86z"/>
					<path class="st8" d="M31.646,191.058h-1.742l-1.129-2.184l-0.457,0.273v1.91h-1.551v-5.711h1.551v2.48
						c0.078-0.153,0.236-0.397,0.473-0.73l1.199-1.75h1.688l-1.801,2.559L31.646,191.058z"/>
					<path class="st8" d="M34.782,191.058h-1.543v-4.449h-1.395v-1.262h4.328v1.262h-1.391V191.058z"/>
					<path class="st8" d="M36.989,191.058v-5.711h1.551v5.711H36.989z"/>
					<path class="st8" d="M43.165,191.058h-3.391v-5.711h3.391v1.238h-1.848v0.898h1.711v1.238h-1.711v1.078h1.848V191.058z"/>
				</g>
				<rect x="21.548" y="205.779" class="st14" width="20.792" height="12.08"/>
				<rect x="21.548" y="205.779" class="st3" width="20.792" height="12.08"/>
				<polyline class="st3" points="24.567,215.693 29.268,210.99 31.201,212.923 32.955,211.192 35.177,213.414 39.675,208.77 				
					"/>
				<path class="st1" d="M15.473,181.916c6.935,0.408,13.872-0.347,20.819-0.347c6.049,0,7.766,0.392,8.687,1.042
					c1.004,0.709,0.895,8.934,0.661,12.447c-0.377,5.673-0.576,23.713-0.109,27.063h2.837v-42.912H15.688v2.616"/>
				<rect x="15.655" y="179.08" class="st3" width="32.578" height="43.071"/>
				<line class="st3" x1="19.831" y1="194.817" x2="44.058" y2="194.817"/>
				<line class="st3" x1="19.831" y1="198.275" x2="44.058" y2="198.275"/>
			</g>
			<g>
				<rect x="15.655" y="184.31" class="st0" width="32.578" height="43.071"/>
				<path class="st1" d="M21.548,213.442c0,0,16.499-0.708,17.66-0.037s1.041,9.685,1.041,9.685h2.091v-12.08H21.548V213.442z"/>
				<g>
					<path class="st8" d="M23.86,193.952l-0.246-0.938c-0.057-0.208-0.127-0.478-0.209-0.809c-0.082-0.331-0.136-0.568-0.162-0.711
						c-0.023,0.133-0.07,0.352-0.139,0.656s-0.222,0.905-0.459,1.801H23.86z M24.462,196.288l-0.281-1.07h-1.855l-0.289,1.07h-1.695
						l1.863-5.734h2.059l1.887,5.734H24.462z"/>
					<path class="st8" d="M31.646,196.288h-1.742l-1.129-2.184l-0.457,0.273v1.91h-1.551v-5.711h1.551v2.48
						c0.078-0.153,0.236-0.397,0.473-0.73l1.199-1.75h1.688l-1.801,2.559L31.646,196.288z"/>
					<polygon class="st8" points="34.782,196.288 33.239,196.288 33.239,191.838 31.845,191.838 31.845,190.577 36.173,190.577 
						36.173,191.838 34.782,191.838 					"/>
					<rect x="36.989" y="190.577" class="st8" width="1.551" height="5.711"/>
					<polygon class="st8" points="43.165,196.288 39.774,196.288 39.774,190.577 43.165,190.577 43.165,191.815 41.317,191.815 
						41.317,192.713 43.028,192.713 43.028,193.952 41.317,193.952 41.317,195.03 43.165,195.03 					"/>
				</g>
				<rect x="21.548" y="211.009" class="st14" width="20.792" height="12.08"/>
				<rect x="21.548" y="211.009" class="st3" width="20.792" height="12.08"/>
				<polyline class="st3" points="24.567,220.923 29.268,216.22 31.201,218.153 32.955,216.422 35.177,218.644 39.675,214 				"/>
				<path class="st1" d="M15.473,187.145c6.935,0.408,13.872-0.347,20.819-0.347c6.049,0,7.766,0.392,8.687,1.042
					c1.004,0.709,0.895,8.934,0.661,12.447c-0.377,5.673-0.576,23.713-0.109,27.063h2.837v-42.912H15.688v2.616"/>
				<rect x="15.655" y="184.31" class="st3" width="32.578" height="43.071"/>
				<line class="st3" x1="19.831" y1="200.047" x2="44.058" y2="200.047"/>
				<line class="st3" x1="19.831" y1="203.505" x2="44.058" y2="203.505"/>
			</g>
			<g>
				<rect x="15.655" y="189.54" class="st0" width="32.578" height="43.071"/>
				<path class="st1" d="M21.548,218.672c0,0,16.499-0.708,17.66-0.037s1.041,9.685,1.041,9.685h2.091v-12.08H21.548V218.672z"/>
				<g>
					<path class="st8" d="M23.86,199.182l-0.246-0.938c-0.057-0.208-0.127-0.478-0.209-0.809c-0.082-0.331-0.136-0.568-0.162-0.711
						c-0.023,0.133-0.07,0.352-0.139,0.656s-0.222,0.905-0.459,1.801H23.86z M24.462,201.518l-0.281-1.07h-1.855l-0.289,1.07h-1.695
						l1.863-5.734h2.059l1.887,5.734H24.462z"/>
					<path class="st8" d="M31.646,201.518h-1.742l-1.129-2.184l-0.457,0.273v1.91h-1.551v-5.711h1.551v2.48
						c0.078-0.154,0.236-0.397,0.473-0.73l1.199-1.75h1.688l-1.801,2.559L31.646,201.518z"/>
					<polygon class="st8" points="34.782,201.518 33.239,201.518 33.239,197.068 31.845,197.068 31.845,195.807 36.173,195.807 
						36.173,197.068 34.782,197.068 					"/>
					<rect x="36.989" y="195.807" class="st8" width="1.551" height="5.711"/>
					<polygon class="st8" points="43.165,201.518 39.774,201.518 39.774,195.807 43.165,195.807 43.165,197.045 41.317,197.045 
						41.317,197.943 43.028,197.943 43.028,199.182 41.317,199.182 41.317,200.26 43.165,200.26 					"/>
				</g>
				<rect x="21.548" y="216.238" class="st14" width="20.792" height="12.08"/>
				<rect x="21.548" y="216.238" class="st3" width="20.792" height="12.08"/>
				<polyline class="st3" points="24.567,226.152 29.268,221.45 31.201,223.382 32.955,221.652 35.177,223.873 39.675,219.23 				
					"/>
				<path class="st1" d="M15.473,192.375c6.935,0.408,13.872-0.347,20.819-0.347c6.049,0,7.766,0.392,8.687,1.042
					c1.004,0.709,0.895,8.934,0.661,12.447c-0.377,5.673-0.576,23.713-0.109,27.063h2.837v-42.912H15.688v2.616"/>
				<rect x="15.655" y="189.54" class="st3" width="32.578" height="43.071"/>
				<line class="st3" x1="19.831" y1="205.277" x2="44.058" y2="205.277"/>
				<line class="st3" x1="19.831" y1="208.735" x2="44.058" y2="208.735"/>
			</g>
			<g>
				<rect x="15.655" y="194.77" class="st0" width="32.578" height="43.071"/>
				<path class="st1" d="M21.548,223.902c0,0,16.499-0.708,17.66-0.037c1.161,0.67,1.041,9.685,1.041,9.685h2.091v-12.08H21.548
					V223.902z"/>
				<g>
					<path class="st8" d="M23.86,204.411l-0.246-0.938c-0.057-0.208-0.127-0.478-0.209-0.809c-0.082-0.331-0.136-0.568-0.162-0.711
						c-0.023,0.133-0.07,0.352-0.139,0.656s-0.222,0.905-0.459,1.801H23.86z M24.462,206.747l-0.281-1.07h-1.855l-0.289,1.07h-1.695
						l1.863-5.734h2.059l1.887,5.734H24.462z"/>
					<path class="st8" d="M31.646,206.747h-1.742l-1.129-2.184l-0.457,0.273v1.91h-1.551v-5.711h1.551v2.48
						c0.078-0.154,0.236-0.397,0.473-0.73l1.199-1.75h1.688l-1.801,2.559L31.646,206.747z"/>
					<polygon class="st8" points="34.782,206.747 33.239,206.747 33.239,202.298 31.845,202.298 31.845,201.036 36.173,201.036 
						36.173,202.298 34.782,202.298 					"/>
					<rect x="36.989" y="201.036" class="st8" width="1.551" height="5.711"/>
					<polygon class="st8" points="43.165,206.747 39.774,206.747 39.774,201.036 43.165,201.036 43.165,202.275 41.317,202.275 
						41.317,203.173 43.028,203.173 43.028,204.411 41.317,204.411 41.317,205.49 43.165,205.49 					"/>
				</g>
				<rect x="21.548" y="221.468" class="st14" width="20.792" height="12.08"/>
				<rect x="21.548" y="221.468" class="st3" width="20.792" height="12.08"/>
				<polyline class="st3" points="24.567,231.382 29.268,226.679 31.201,228.612 32.955,226.882 35.177,229.103 39.675,224.46 				
					"/>
				<path class="st1" d="M15.473,197.605c6.935,0.408,13.872-0.347,20.819-0.347c6.049,0,7.766,0.392,8.687,1.042
					c1.004,0.709,0.895,8.934,0.661,12.447c-0.377,5.673-0.576,23.713-0.109,27.063h2.837v-42.912H15.688v2.616"/>
				<rect x="15.655" y="194.77" class="st3" width="32.578" height="43.071"/>
				<line class="st3" x1="19.831" y1="210.507" x2="44.058" y2="210.507"/>
				<line class="st3" x1="19.831" y1="213.964" x2="44.058" y2="213.964"/>
			</g>
			<g>
				<rect x="15.655" y="199.999" class="st0" width="32.578" height="43.071"/>
				<path class="st1" d="M21.548,229.131c0,0,16.499-0.708,17.66-0.037s1.041,9.685,1.041,9.685h2.091v-12.08H21.548V229.131z"/>
				<g>
					<path class="st8" d="M24.462,211.977l-0.281-1.07h-1.855l-0.289,1.07h-1.695l1.863-5.734h2.059l1.887,5.734H24.462z
						 M23.86,209.641l-0.246-0.938c-0.057-0.208-0.127-0.478-0.209-0.809s-0.136-0.568-0.162-0.711
						c-0.023,0.133-0.07,0.352-0.139,0.656s-0.222,0.905-0.459,1.801H23.86z"/>
					<path class="st8" d="M31.646,211.977h-1.742l-1.129-2.184l-0.457,0.273v1.91h-1.551v-5.711h1.551v2.48
						c0.078-0.154,0.236-0.397,0.473-0.73l1.199-1.75h1.688l-1.801,2.559L31.646,211.977z"/>
					<path class="st8" d="M34.782,211.977h-1.543v-4.449h-1.395v-1.262h4.328v1.262h-1.391V211.977z"/>
					<path class="st8" d="M36.989,211.977v-5.711h1.551v5.711H36.989z"/>
					<path class="st8" d="M43.165,211.977h-3.391v-5.711h3.391v1.238h-1.848v0.898h1.711v1.238h-1.711v1.078h1.848V211.977z"/>
				</g>
				<rect x="21.548" y="226.698" class="st14" width="20.792" height="12.08"/>
				<rect x="21.548" y="226.698" class="st3" width="20.792" height="12.08"/>
				<polyline class="st3" points="24.567,236.612 29.268,231.909 31.201,233.842 32.955,232.112 35.177,234.333 39.675,229.69 				
					"/>
				<path class="st1" d="M15.473,202.835c6.935,0.408,13.872-0.347,20.819-0.347c6.049,0,7.766,0.392,8.687,1.042
					c1.004,0.709,0.895,8.934,0.661,12.447c-0.377,5.673-0.576,23.713-0.109,27.063h2.837v-42.912H15.688v2.616"/>
				<rect x="15.655" y="199.999" class="st3" width="32.578" height="43.071"/>
				<line class="st3" x1="19.831" y1="215.737" x2="44.058" y2="215.737"/>
				<line class="st3" x1="19.831" y1="219.194" x2="44.058" y2="219.194"/>
			</g>
		</g>
		<g>
			<rect x="28.688" y="201.654" class="st0" width="6.466" height="42.37"/>
			<rect x="28.688" y="177.492" class="st0" width="6.466" height="24.161"/>
			<path class="st1" d="M28.866,180.375c0.996-0.501,2.27-0.063,3.024,0.755c0.754,0.818,0.631,14.497,2.123,20.01
				c0.791,0.078,0.073,0.256,0.819,0.53c0.025-0.482,0.119-0.961,0.144-1.444V177.51h-6.166v2.436"/>
			<path class="st1" d="M28.866,204.519c0.996-0.501,2.27-0.063,3.024,0.755c0.754,0.818,0.631,32.973,2.123,38.485
				c0.791,0.078,0.073,0.256,0.819,0.53c0.025-0.482,0.119-19.437,0.144-19.919v-22.716h-6.166v2.436"/>
			<rect x="28.688" y="177.492" class="st3" width="6.466" height="24.161"/>
			<rect x="28.688" y="201.654" class="st3" width="6.466" height="42.37"/>
		</g>
	</g>
	<g>
		<rect x="234.219" y="40.95" class="st0" width="56.015" height="34.285"/>
		<rect x="234.219" y="40.95" class="st3" width="56.015" height="34.285"/>
		<path class="st1" d="M234.605,45.691c5.048-0.419,24.908-0.631,29.974-0.637c5.7-0.006,11.396,0.25,17.09,0.506
			c1.342,0.06,4.049-0.178,4.359,1.861c0.075,6.534,0.149,20.529,0.224,27.062c0.003,0.249,1.63,0.548,1.852,0.662
			c0.091,0.047,0.197,0.05,0.299,0.053c0.924,0.026,0.725,0.041,1.73,0.081V41.114c-0.021-0.014,0.04-0.165,0.101-0.164
			l-55.896,0.152c0,0.091,0,0.183,0,0.274v1.778L234.605,45.691z"/>
		<rect x="234.219" y="40.95" class="st15" width="56.015" height="34.285"/>
		<polyline class="st3" points="241.945,65.427 253.882,56.125 262.226,59.011 272.85,50.94 282.507,57.562 		"/>
		<circle class="st16" cx="241.945" cy="65.626" r="1.207"/>
		<circle class="st16" cx="253.882" cy="56.125" r="1.207"/>
		<circle class="st16" cx="282.507" cy="57.722" r="1.207"/>
		<circle class="st16" cx="272.865" cy="51.139" r="1.207"/>
		<circle class="st16" cx="262.345" cy="59.071" r="1.207"/>
	</g>
	<path class="st0" d="M190.186,212.294h13.417c0,7.36-6.057,13.417-13.417,13.417s-13.417-6.057-13.417-13.417
		c0-7.36,6.057-13.417,13.417-13.417c1.955,0,3.887,0.427,5.66,1.252L190.186,212.294z"/>
	<path class="st0" d="M194.824,209.281l5.66-12.165c4.723,2.197,7.758,6.956,7.758,12.165c0,0.03,0,0.059,0,0.089L194.824,209.281z"
		/>
	<rect x="101.13" y="187.757" class="st0" width="32.578" height="43.071"/>
	<path class="st1" d="M185.267,199.447c1.293,0.829,3.119,0.901,4.003,2.158c0.323,0.459,0.467,1.018,0.584,1.567
		c0.646,3.037,0.639,6.212-0.02,9.246c1.997-4.077,3.994-8.154,5.991-12.231c-2.52-1.396-5.599-1.747-8.368-0.952
		c-0.297,0.085-0.662,0.327-0.537,0.61"/>
	<path class="st1" d="M189.799,212.572c-0.33,0.258,0.134,0.732,0.53,0.868c1.422,0.489,2.88,0.875,4.358,1.153
		c1.482,0.279,3.245,0.643,3.812,2.04c0.477,1.174-0.172,2.492-0.92,3.516c-1.631,2.233-3.835,4.043-6.342,5.21
		c2.087,0.335,4.123-0.704,5.983-1.71c0.813-0.44,1.633-0.884,2.344-1.476c1.007-0.838,1.761-1.946,2.355-3.114
		c0.892-1.752,1.451-3.673,1.638-5.63c0.032-0.332,0.021-0.734-0.26-0.913c-0.127-0.081-0.284-0.096-0.434-0.108
		c-4.331-0.357-8.694-0.313-13.017,0.129"/>
	<path class="st1" d="M198.166,202.362c0.426-0.52,1.101-0.826,1.773-0.806c1.067,0.032,1.955,0.815,2.637,1.636
		c1.448,1.742,2.43,3.867,2.82,6.099c0.835,0.011,1.67-0.032,2.499-0.128c0.084-0.01,0.172-0.022,0.24-0.071
		c0.201-0.147,0.086-0.459-0.019-0.685c-0.362-0.782-0.368-1.673-0.481-2.527c-0.239-1.808-0.999-3.545-2.165-4.947
		c-0.594-0.714-1.287-1.34-2.006-1.927c-0.566-0.462-1.151-0.902-1.752-1.318c-0.35-0.243-0.789-0.486-1.178-0.314
		c-0.294,0.13-0.443,0.453-0.565,0.751c-0.404,0.988-0.776,1.99-1.115,3.003"/>
	<path class="st3" d="M190.186,212.294h13.417c0,7.36-6.057,13.417-13.417,13.417s-13.417-6.057-13.417-13.417
		c0-7.36,6.057-13.417,13.417-13.417c1.955,0,3.887,0.427,5.66,1.252L190.186,212.294z"/>
	<path class="st3" d="M194.824,209.281l5.66-12.165c4.723,2.197,7.758,6.956,7.758,12.165c0,0.03,0,0.059,0,0.089L194.824,209.281z"
		/>
	<g>
		<g>
			<line class="st3" x1="169.172" y1="211.444" x2="146.179" y2="211.397"/>
			<polyline class="st3" points="164.876,215.669 169.172,211.444 164.89,207.204 			"/>
		</g>
	</g>
	<path class="st1" d="M107.023,216.889c0,0,16.499-0.708,17.66-0.037s1.041,9.685,1.041,9.685h2.091v-12.08h-20.792V216.889z"/>
	<g>
		<path class="st8" d="M109.936,199.737l-0.281-1.07h-1.855l-0.289,1.07h-1.695l1.863-5.734h2.059l1.887,5.734H109.936z
			 M109.334,197.402l-0.246-0.938c-0.057-0.208-0.127-0.478-0.209-0.809c-0.082-0.331-0.136-0.567-0.162-0.711
			c-0.023,0.133-0.07,0.352-0.139,0.656s-0.222,0.905-0.459,1.801H109.334z"/>
		<path class="st8" d="M117.12,199.737h-1.742l-1.129-2.184l-0.457,0.273v1.91h-1.551v-5.711h1.551v2.48
			c0.078-0.153,0.236-0.397,0.473-0.73l1.199-1.75h1.688l-1.801,2.559L117.12,199.737z"/>
		<path class="st8" d="M120.256,199.737h-1.543v-4.449h-1.395v-1.262h4.328v1.262h-1.391V199.737z"/>
		<path class="st8" d="M122.463,199.737v-5.711h1.551v5.711H122.463z"/>
		<path class="st8" d="M128.639,199.737h-3.391v-5.711h3.391v1.238h-1.848v0.898h1.711v1.238h-1.711v1.078h1.848V199.737z"/>
	</g>
	<rect x="107.023" y="214.456" class="st14" width="20.792" height="12.08"/>
	<rect x="107.023" y="214.456" class="st3" width="20.792" height="12.08"/>
	<polyline class="st3" points="110.042,224.37 114.742,219.667 116.675,221.6 118.429,219.869 120.651,222.091 125.149,217.448 	"/>
	<path class="st1" d="M100.947,190.593c6.935,0.408,13.872-0.347,20.819-0.347c6.049,0,7.766,0.392,8.687,1.042
		c1.004,0.709,0.895,8.934,0.661,12.447c-0.377,5.673-0.577,23.713-0.109,27.063h2.837v-42.912h-32.681v2.616"/>
	<rect x="101.13" y="187.757" class="st3" width="32.578" height="43.071"/>
	<line class="st3" x1="105.305" y1="203.495" x2="129.532" y2="203.495"/>
	<line class="st3" x1="105.305" y1="206.952" x2="129.532" y2="206.952"/>
	<g>
		<g>
			<path class="st0" d="M282.492,310.295h-10.068v-43.147h5.753c0.132,0,0.257-0.024,0.379-0.057h0.185l0.056-0.089
				c0.482-0.233,0.818-0.722,0.818-1.292v-2.876c0-0.161-0.029-0.33-0.071-0.501l-0.005-0.26l-0.684-1.483l-32.135-15.578
				c-0.413-0.202-1.005-0.319-1.622-0.319c-0.617,0-1.208,0.117-1.622,0.319l-31.361,15.361c-0.818,0.4-1.535,1.55-1.535,2.46v2.876
				c0,0.793,0.645,1.438,1.438,1.438h5.753v43.147h-10.068c-0.793,0-1.438,0.645-1.438,1.438v7.191c0,0.793,0.645,1.438,1.438,1.438
				h23.012v0c0,0.346,0.128,0.66,0.332,0.908v0.41h0.533c0.176,0.077,0.369,0.121,0.573,0.121h25.888
				c0.204,0,0.397-0.044,0.573-0.121h0.452v-0.311c0.255-0.26,0.413-0.614,0.413-1.006v0l1.66,0.063v-0.063h21.352
				c0.793,0,1.438-0.645,1.438-1.438v-7.191C283.93,310.94,283.285,310.295,282.492,310.295z M224.963,310.295v-43.147h5.753v0.285
				h-0.101v1.14h0.101v41.721H224.963z M259.48,310.295V310.2h0.101v-42.995h-0.101v-0.057h5.753v43.147H259.48z"/>
			<g>
				<rect x="239.558" y="288.874" class="st1" width="10.634" height="2.129"/>
				<rect x="248.253" y="288.971" class="st1" width="2.319" height="19.556"/>
				<rect x="265.398" y="267.433" class="st1" width="5.474" height="1.14"/>
				<rect x="230.614" y="267.433" class="st1" width="27.589" height="1.14"/>
				<rect x="217.841" y="267.433" class="st1" width="5.474" height="1.14"/>
				<rect x="236.659" y="312.139" class="st1" width="16.798" height="0.912"/>
				<rect x="234.007" y="316.586" class="st1" width="22.102" height="0.912"/>
				<rect x="231.048" y="320.768" class="st1" width="28.019" height="0.912"/>
				<path class="st1" d="M245.098,244.694l1.622,0.319l32.135,15.578l0.684,1.483l0.076,3.637l-0.874,1.381h-1.86v-3.106
					c0-1.172-0.662-2.243-1.71-2.767l-32.414-15.487L245.098,244.694z"/>
				<path class="st1" d="M253.727,310.295l-0.114,2.148l-0.608,0.912l2.161-0.184l0.957,0.488l0.532,1.369l-0.152,1.521
					l-0.532,1.064l2.585-0.076l0.684,0.608l0.241,2.218l1.66,0.063v-2.676c0-0.831-0.674-1.505-1.505-1.505h-0.775v-2.129
					c0-0.798-0.647-1.444-1.444-1.444h-0.685v-2.357C256.73,310.314,253.585,310.152,253.727,310.295z"/>
				<rect x="269.96" y="267.205" class="st1" width="2.395" height="42.995"/>
				<rect x="257.187" y="267.205" class="st1" width="2.395" height="42.995"/>
				<rect x="222.365" y="267.205" class="st1" width="2.395" height="42.995"/>
				<path id="Fill-21_00000181087711350749725000000005775262066132820378_" class="st3" d="M212.019,267.148
					c-0.793,0-1.438-0.645-1.438-1.438v-2.876c0-0.91,0.717-2.06,1.535-2.46l31.361-15.361c0.413-0.202,1.005-0.319,1.622-0.319
					c0.617,0,1.208,0.117,1.622,0.319l31.361,15.361c0.818,0.4,1.535,1.55,1.535,2.46v2.876c0,0.793-0.645,1.438-1.438,1.438
					H212.019z"/>
				<polygon class="st3" points="272.424,310.295 272.424,310.295 272.424,267.148 265.233,267.148 265.233,310.295 
					265.233,310.295 				"/>
				<polygon class="st3" points="224.963,310.295 224.963,310.295 224.963,267.148 217.772,267.148 217.772,310.295 
					217.772,310.295 				"/>
				<path id="Fill-17_00000059295418279048533440000002872701669339633041_" class="st3" d="M235.03,317.486
					c-0.793,0-1.438-0.645-1.438-1.438v-1.438c0-0.793,0.645-1.438,1.438-1.438h20.135c0.793,0,1.438,0.645,1.438,1.438v1.438
					c0,0.793-0.645,1.438-1.438,1.438H235.03z"/>
				<path id="Fill-37_00000165933533469428568140000015584046145989829285_" class="st3" d="M232.154,321.801
					c-0.793,0-1.438-0.645-1.438-1.438v-1.438c0-0.793,0.645-1.438,1.438-1.438h25.888c0.793,0,1.438,0.645,1.438,1.438v1.438
					c0,0.793-0.645,1.438-1.438,1.438H232.154z"/>
				<path class="st3" d="M282.492,310.295h-28.765l0,0v1.438c0,0.793-0.645,1.438-1.438,1.438h-14.382
					c-0.793,0-1.438-0.645-1.438-1.438v-1.438l0,0h-28.765c-0.793,0-1.438,0.645-1.438,1.438v7.191c0,0.793,0.645,1.438,1.438,1.438
					h23.012v-1.438c0-0.793,0.645-1.438,1.438-1.438h25.888c0.793,0,1.438,0.645,1.438,1.438v1.438h23.012
					c0.793,0,1.438-0.645,1.438-1.438v-7.191C283.93,310.94,283.285,310.295,282.492,310.295z"/>
				<path class="st3" d="M250.851,290.16c0-0.793-0.645-1.438-1.438-1.438h-8.629c-0.793,0-1.438,0.645-1.438,1.438v18.697h11.506
					V290.16z"/>
				<path class="st3" d="M230.716,267.148v43.147h5.753c0-0.793,0.645-1.438,1.438-1.438h14.382c0.793,0,1.438,0.645,1.438,1.438
					h5.753v-43.147H230.716z"/>
			</g>
			<g>
				<path class="st8" d="M234.462,257.395h1.791c0.697,0,1.215,0.104,1.554,0.311c0.338,0.207,0.507,0.529,0.507,0.967
					c0,0.288-0.073,0.534-0.221,0.738s-0.342,0.334-0.583,0.393v0.035c0.318,0.084,0.549,0.225,0.691,0.421s0.214,0.452,0.214,0.765
					c0,0.466-0.175,0.833-0.524,1.101s-0.827,0.402-1.431,0.402h-1.998V257.395z M235.849,259.365h0.418
					c0.199,0,0.353-0.041,0.462-0.123c0.108-0.082,0.163-0.204,0.163-0.365c0-0.288-0.218-0.432-0.653-0.432h-0.39V259.365z
					 M235.849,260.38v1.078h0.488c0.433,0,0.649-0.182,0.649-0.547c0-0.171-0.058-0.302-0.174-0.394s-0.284-0.137-0.504-0.137
					H235.849z"/>
				<path class="st8" d="M242.457,262.528l-0.253-0.962h-1.668l-0.26,0.962h-1.523l1.675-5.154h1.851l1.695,5.154H242.457z
					 M241.916,260.429l-0.221-0.843c-0.052-0.187-0.114-0.43-0.188-0.727c-0.073-0.297-0.122-0.511-0.146-0.639
					c-0.021,0.12-0.062,0.316-0.124,0.59c-0.062,0.274-0.2,0.813-0.413,1.619H241.916z"/>
				<path class="st8" d="M249.416,262.528h-1.818l-1.875-3.616h-0.032c0.045,0.568,0.067,1.003,0.067,1.303v2.313h-1.229v-5.133
					h1.812l1.868,3.568h0.021c-0.033-0.518-0.049-0.933-0.049-1.247v-2.321h1.235V262.528z"/>
				<path class="st8" d="M254.911,262.528h-1.565l-1.016-1.963l-0.41,0.246v1.717h-1.395v-5.133h1.395v2.23
					c0.07-0.139,0.212-0.357,0.425-0.657l1.078-1.573h1.517l-1.619,2.3L254.911,262.528z"/>
			</g>
		</g>
		<circle class="st3" cx="244.875" cy="277.267" r="4.624"/>
	</g>
	<g>
		<rect x="183.164" y="11.765" class="st0" width="3.991" height="39.296"/>
		<rect x="162.095" y="37.688" class="st0" width="44.928" height="19.687"/>
		<rect x="157.925" y="44.527" class="st0" width="52.295" height="11.375"/>
		<rect x="151.99" y="51.365" class="st0" width="29.904" height="66.144"/>
		<g>
			<g>
				<polygon class="st0" points="173.607,51.365 216.549,51.365 216.403,117.234 173.461,117.234 				"/>
				<path class="st1" d="M151.842,55.417c3.943-0.059,7.886-0.118,11.829-0.176c3.202-0.048,5.65,3.118,6.195,6.274
					s1.434,22.434,0.543,34.509c-0.476,6.456-1.191,18.283-1.068,21.211c0,0-0.02,0.286-0.018,0.347h4.577V51.288h-22.251v3.823"/>
				<path class="st1" d="M162.253,39.655c4.093,0.204,8.186,0.408,12.279,0.613c0.663,0.033,1.379,0.086,1.883,0.519
					c0.952,0.818,0.558,2.348,0.085,3.511c1.611,0.174,3.236,0.223,4.854,0.147c0.18-2.22,0.36-4.44,0.54-6.66
					c-5.828,0.571-11.672-0.991-17.524-0.793c-0.503,0.017-1.031,0.054-1.458,0.321c-0.428,0.266-0.708,0.836-0.488,1.289
					c0.077,0.158,0.407,0.182,0.339,0.02"/>
				<path class="st1" d="M157.925,46.874c4.417,0.204,9.964,0.408,14.381,0.613c0.715,0.033,1.489,0.086,2.032,0.519
					c1.028,0.818,0.602,2.348,0.092,3.511c1.739,0.174,2.362,0.223,4.108,0.147c0.194-2.22,0.388-4.44,0.582-6.66
					c-6.289,0.571-12.596-0.991-18.911-0.793c-0.543,0.017-1.112,0.054-1.574,0.321c-0.461,0.266-0.765,0.836-0.527,1.289
					c0.083,0.158,0.44,0.182,0.366,0.02"/>
				<path class="st1" d="M173.996,55.417c3.943-0.059,28.262-0.118,32.205-0.176c3.202-0.048,6.796,1.134,7.34,4.289
					c0.544,3.155,1.418,24.418,0.527,36.494c-0.476,6.456-0.897,5.664-0.995,12.138c0,0-1.327,6.145-1.203,9.073l4.559,0.347V51.288
					h-42.627l0.193,3.823"/>
				<polygon class="st3" points="151.99,51.365 173.461,51.365 173.388,117.234 151.918,117.234 				"/>
				<polygon class="st3" points="173.607,51.365 216.549,51.365 216.403,117.234 173.461,117.234 				"/>
				<path class="st1" d="M179.31,60.956c1.347,0.166,2.765,0.361,3.837,1.192c0.927,0.719,1.473,1.837,1.747,2.978
					c0.273,1.141,0.303,2.323,0.381,3.494c0.019,0.279,0.093,0.625,0.365,0.691c0.109,0.026,0.224-0.004,0.332-0.033
					c0.388-0.107,0.795-0.152,1.183-0.258v-9.842h-7.935v1.777"/>
				<path class="st1" d="M191.02,60.956c1.347,0.166,2.765,0.361,3.837,1.192c0.927,0.719,1.473,1.837,1.747,2.978
					c0.273,1.141,0.303,2.323,0.381,3.494c0.019,0.279,0.093,0.625,0.365,0.691c0.109,0.026,0.224-0.004,0.332-0.033
					c0.388-0.107,0.795-0.152,1.183-0.258v-9.842h-7.935v1.777"/>
				<path class="st1" d="M202.729,60.956c1.347,0.166,2.765,0.361,3.837,1.192c0.927,0.719,1.473,1.837,1.747,2.978
					c0.273,1.141,0.303,2.323,0.381,3.494c0.019,0.279,0.093,0.625,0.365,0.691c0.109,0.026,0.224-0.004,0.332-0.033
					c0.388-0.107,0.795-0.152,1.183-0.258v-9.842h-7.935v1.777"/>
				<path class="st1" d="M179.31,74.658c1.347,0.166,2.765,0.361,3.837,1.192c0.927,0.719,1.473,1.837,1.747,2.978
					c0.273,1.141,0.303,2.323,0.381,3.494c0.019,0.279,0.093,0.625,0.365,0.691c0.109,0.026,0.224-0.004,0.332-0.033
					c0.388-0.107,0.795-0.152,1.183-0.258v-9.842h-7.935v1.777"/>
				<path class="st1" d="M191.02,74.658c1.347,0.166,2.765,0.361,3.837,1.192c0.927,0.719,1.473,1.837,1.747,2.978
					s0.303,2.323,0.381,3.494c0.019,0.279,0.093,0.625,0.365,0.691c0.109,0.026,0.224-0.004,0.332-0.033
					c0.388-0.107,0.795-0.152,1.183-0.258v-9.842h-7.935v1.777"/>
				<path class="st1" d="M202.729,74.658c1.347,0.166,2.765,0.361,3.837,1.192c0.927,0.719,1.473,1.837,1.747,2.978
					c0.273,1.141,0.303,2.323,0.381,3.494c0.019,0.279,0.093,0.625,0.365,0.691c0.109,0.026,0.224-0.004,0.332-0.033
					c0.388-0.107,0.795-0.152,1.183-0.258v-9.842h-7.935v1.777"/>
				<path class="st1" d="M179.31,88.359c1.347,0.166,2.765,0.361,3.837,1.192c0.927,0.719,1.473,1.837,1.747,2.978
					c0.273,1.141,0.303,2.323,0.381,3.494c0.019,0.279,0.093,0.625,0.365,0.691c0.109,0.026,0.224-0.004,0.332-0.033
					c0.388-0.107,0.795-0.152,1.183-0.258v-9.842h-7.935v1.777"/>
				<path class="st1" d="M191.02,88.359c1.347,0.166,2.765,0.361,3.837,1.192c0.927,0.719,1.473,1.837,1.747,2.978
					s0.303,2.323,0.381,3.494c0.019,0.279,0.093,0.625,0.365,0.691c0.109,0.026,0.224-0.004,0.332-0.033
					c0.388-0.107,0.795-0.152,1.183-0.258v-9.842h-7.935v1.777"/>
				<path class="st1" d="M202.729,88.359c1.347,0.166,2.765,0.361,3.837,1.192c0.927,0.719,1.473,1.837,1.747,2.978
					c0.273,1.141,0.303,2.323,0.381,3.494c0.019,0.279,0.093,0.625,0.365,0.691c0.109,0.026,0.224-0.004,0.332-0.033
					c0.388-0.107,0.795-0.152,1.183-0.258v-9.842h-7.935v1.777"/>
				<path class="st1" d="M181.337,39.684c1.49-0.293,3.008-0.444,4.527-0.452c1.751-0.009,3.496,0.173,5.238,0.352
					c2.415,0.249,4.835,0.494,7.262,0.494c1.352,0,2.704-0.077,4.048-0.229c0.434-0.049,0.931-0.087,1.249,0.213
					c0.17,0.16,0.254,0.389,0.332,0.609c0.26,0.732,0.525,1.495,0.442,2.268c-0.048,0.446-0.203,0.933,0.027,1.318
					c0.241,0.404,0.833,0.483,1.253,0.273c0.421-0.21,0.695-0.632,0.886-1.062c0.489-1.101,0.556-2.384,0.183-3.529
					c-0.235-0.721-0.591-1.561-0.063-2.105h-25.319c0.001,0.439,0.002,0.878,0.003,1.317"/>
				<path class="st1" d="M178.93,46.391c1.49-0.293,9.463-0.444,10.982-0.452c1.751-0.009,3.496,0.173,5.238,0.352
					c2.415,0.249,4.835,0.494,7.262,0.494c1.352,0,2.704-0.077,4.048-0.229c0.434-0.049,0.931-0.087,1.249,0.213
					c0.17,0.16,0.254,0.389,0.332,0.609c0.26,0.732,0.525,1.495,0.442,2.268c-0.048,0.446-0.203,0.933,0.027,1.318
					c0.241,0.404,0.833,0.483,1.253,0.273c0.421-0.21,0.695-0.632,0.886-1.062c0.489-1.101,0.556-2.384,0.183-3.529
					c-0.235-0.721-0.591-1.561-0.063-2.105h-31.774c0.001,0.439,0.002,0.878,0.003,1.317"/>
				<path class="st1" d="M183.229,31.199c-0.265,0.509-0.086-3.168,0.392-2.85c0.473,0.315,1.195,0.317,1.45,0.825
					c0.083,0.167,0.095,0.359,0.106,0.546c0.146,2.653,0.293,5.305,0.439,7.958c0.005,0.083,0.011,0.171,0.06,0.238
					c0.053,0.073,0.145,0.104,0.232,0.129c0.4,0.113,0.894,0.134,1.167-0.18c0.198-0.229,0.212-0.559,0.215-0.862
					c0.029-2.774,0.059-5.549,0.088-8.323c0.005-0.454,0.005,3.444-0.203,3.04c-0.295-0.574-0.961-0.88-1.606-0.92
					s-1.279,0.142-1.899,0.323"/>
				<path class="st1" d="M183.234,14.224c0.677-0.017,1.356,0.047,2.018,0.191c0.097,0.021,0.202,0.05,0.256,0.133
					c0.036,0.055,0.042,0.123,0.047,0.189c0.134,1.774,0.201,0.876,0.201,2.655c0.304,0.007,0.608,0.014,0.912,0.022
					c0.081,0.002,0.167,0.003,0.238-0.037c0.088-0.049,0.134-0.149,0.17-0.243c0.263-0.696,0.277-1.458,0.278-2.202
					c0.002-1.84-0.06-1.004-0.187-2.84c-0.008-0.12-0.027-0.259-0.13-0.322c-0.073-0.045-0.165-0.037-0.251-0.027
					c-0.941,0.111-1.882,0.221-2.823,0.332c-0.217,0.025-0.444,0.055-0.62,0.183c-0.414,0.301-0.326,0.93-0.196,1.425"/>
				
					<rect x="202.72" y="59.106" transform="matrix(-1 4.096134e-11 -4.096134e-11 -1 413.5219 128.2892)" class="st3" width="8.082" height="10.077"/>
				
					<rect x="190.921" y="59.106" transform="matrix(-1 4.456201e-11 -4.456201e-11 -1 389.9251 128.2892)" class="st3" width="8.082" height="10.077"/>
				
					<rect x="179.123" y="59.106" transform="matrix(-1 4.208621e-11 -4.208621e-11 -1 366.3283 128.2892)" class="st3" width="8.082" height="10.077"/>
				
					<rect x="202.72" y="72.889" transform="matrix(-1 4.444966e-11 -4.444966e-11 -1 413.5219 155.8547)" class="st3" width="8.082" height="10.077"/>
				
					<rect x="190.921" y="72.889" transform="matrix(-1 4.580013e-11 -4.580013e-11 -1 389.9251 155.8547)" class="st3" width="8.082" height="10.077"/>
				
					<rect x="179.123" y="72.889" transform="matrix(-1 4.456201e-11 -4.456201e-11 -1 366.3283 155.8547)" class="st3" width="8.082" height="10.077"/>
				
					<rect x="202.72" y="86.581" transform="matrix(-1 4.692545e-11 -4.692545e-11 -1 413.5219 183.2379)" class="st3" width="8.082" height="10.077"/>
				
					<rect x="190.921" y="86.581" transform="matrix(-1 4.580013e-11 -4.580013e-11 -1 389.9251 183.2379)" class="st3" width="8.082" height="10.077"/>
				
					<rect x="179.123" y="86.581" transform="matrix(-1 4.456201e-11 -4.456201e-11 -1 366.3283 183.2379)" class="st3" width="8.082" height="10.077"/>
				<polyline class="st3" points="160.606,59.53 160.606,117.234 164.773,117.234 164.773,59.53 				"/>
				
					<rect x="178.994" y="44.527" transform="matrix(-1 4.434840e-11 -4.434840e-11 -1 389.7963 95.8915)" class="st3" width="31.808" height="6.838"/>
				
					<rect x="157.925" y="44.527" transform="matrix(-1 4.459088e-11 -4.459088e-11 -1 336.9191 95.8915)" class="st3" width="21.069" height="6.838"/>
				
					<rect x="181.36" y="37.688" transform="matrix(-1 4.430177e-11 -4.430177e-11 -1 387.9925 82.2149)" class="st3" width="25.272" height="6.838"/>
				
					<rect x="162.095" y="37.688" transform="matrix(-1 4.517796e-11 -4.517796e-11 -1 343.4552 82.2149)" class="st3" width="19.266" height="6.838"/>
				
					<rect x="183.164" y="11.765" transform="matrix(-1 4.456201e-11 -4.456201e-11 -1 370.3694 49.4529)" class="st3" width="4.041" height="25.924"/>
				<g>
					<g>
						<rect x="173.437" y="17.47" class="st0" width="23.495" height="13.651"/>
						<path class="st1" d="M173.508,19.502c4.348-0.507,8.697,0.772,13.073,0.895c1.411,0.04,2.836-0.04,4.222,0.223
							c0.667,0.127,1.361,0.359,1.783,0.891c0.493,0.622,0.497,1.487,0.478,2.281c-0.058,2.402-0.116,4.804-0.174,7.206
							c1.064-0.052,2.136,0.059,3.166,0.33c0.198,0.052,0.43,0.104,0.591-0.023c0.14-0.11,0.165-0.308,0.18-0.485
							c0.353-4.321,0.704-8.69,0.047-12.975c-1.59-0.487-3.261-0.979-4.891-0.649c-0.662,0.134-1.29,0.399-1.943,0.568
							c-2.787,0.72-5.68-0.36-8.539-0.687c-1.769-0.202-3.571-0.113-5.31,0.265c-0.453,0.098-0.906,0.216-1.369,0.223
							c-0.366,0.005-0.756-0.055-1.081,0.114c-0.325,0.168-0.471,0.705-0.152,0.885"/>
						<rect x="173.437" y="17.47" class="st3" width="23.495" height="13.651"/>
						<polyline class="st3" points="176.849,28.673 182.16,23.359 184.344,25.543 186.327,23.587 188.837,26.098 193.921,20.851 
													"/>
					</g>
				</g>
			</g>
		</g>
	</g>
	<g>
		<polyline class="st3" points="203.909,356.522 204.191,362.427 198.354,361.594 		"/>
	</g>
	<g>
		<g>
			<rect x="91.911" y="60.598" class="st0" width="39.613" height="52.372"/>
			<path class="st1" d="M91.637,63.893c8.433,0.496,16.867-0.422,25.315-0.422c7.355,0,9.443,0.476,10.563,1.267
				c1.221,0.862,1.088,10.863,0.804,15.135c-0.458,6.898-0.711,29.024-0.142,33.097h3.347l0.01-52.369H91.899v3.181"/>
			<rect x="91.911" y="60.598" class="st3" width="39.613" height="52.372"/>
			<g>
				<path class="st17" d="M106.83,74.91h-2.021l-0.605-2.755c-0.029-0.115-0.074-0.345-0.137-0.688
					c-0.062-0.343-0.107-0.63-0.136-0.861c-0.023,0.188-0.061,0.42-0.112,0.699s-0.104,0.534-0.153,0.768
					c-0.051,0.233-0.261,1.18-0.63,2.837h-2.02l-1.566-6.324h1.648l0.688,3.17c0.156,0.701,0.263,1.259,0.32,1.674
					c0.037-0.294,0.104-0.694,0.201-1.198c0.097-0.505,0.187-0.923,0.271-1.255l0.558-2.392h1.583l0.541,2.392
					c0.092,0.384,0.186,0.826,0.281,1.328c0.095,0.502,0.158,0.877,0.19,1.125c0.037-0.32,0.14-0.875,0.307-1.666l0.701-3.179h1.647
					L106.83,74.91z"/>
				<path class="st17" d="M112.781,74.91h-3.754v-6.324h3.754v1.371h-2.046v0.995h1.895v1.371h-1.895v1.193h2.046V74.91z"/>
				<path class="st17" d="M115.418,72.609v2.301h-1.708v-6.324h2.071c1.719,0,2.578,0.623,2.578,1.869
					c0,0.732-0.357,1.299-1.072,1.7l1.843,2.755h-1.938l-1.341-2.301H115.418z M115.418,71.324h0.32
					c0.597,0,0.896-0.264,0.896-0.792c0-0.436-0.293-0.653-0.878-0.653h-0.338V71.324z"/>
				<path class="st17" d="M122.319,74.91h-1.709v-4.926h-1.544v-1.397h4.792v1.397h-1.539V74.91z"/>
				<path class="st17" d="M101.629,79.59c0,0.706-0.208,1.252-0.625,1.637c-0.417,0.385-1.009,0.578-1.775,0.578h-0.48v2.098h-1.708
					v-6.324h2.188c0.799,0,1.398,0.175,1.8,0.523C101.429,78.451,101.629,78.947,101.629,79.59z M98.749,80.412h0.312
					c0.257,0,0.461-0.072,0.612-0.216c0.151-0.145,0.228-0.343,0.228-0.597c0-0.427-0.237-0.641-0.71-0.641h-0.441V80.412z"/>
				<path class="st17" d="M106.34,83.903l-0.312-1.186h-2.055l-0.32,1.186h-1.877l2.063-6.35h2.279l2.089,6.35H106.34z
					 M105.674,81.316l-0.272-1.038c-0.063-0.23-0.141-0.529-0.231-0.896s-0.151-0.628-0.18-0.787
					c-0.026,0.147-0.077,0.39-0.153,0.727c-0.077,0.338-0.246,1.002-0.509,1.994H105.674z"/>
				<path class="st17" d="M113.303,79.59c0,0.706-0.208,1.252-0.625,1.637c-0.417,0.385-1.009,0.578-1.775,0.578h-0.48v2.098h-1.708
					v-6.324h2.188c0.799,0,1.398,0.175,1.8,0.523C113.103,78.451,113.303,78.947,113.303,79.59z M110.422,80.412h0.312
					c0.257,0,0.461-0.072,0.612-0.216c0.151-0.145,0.228-0.343,0.228-0.597c0-0.427-0.237-0.641-0.71-0.641h-0.441V80.412z"/>
				<path class="st17" d="M114.134,83.903v-6.324h1.717v6.324H114.134z"/>
				<path class="st17" d="M120.794,83.903h-3.754v-6.324h3.754v1.371h-2.046v0.995h1.895v1.371h-1.895v1.194h2.046V83.903z"/>
				<path class="st17" d="M123.433,81.601v2.301h-1.708v-6.324h2.071c1.719,0,2.578,0.623,2.578,1.869
					c0,0.732-0.357,1.299-1.072,1.699l1.843,2.756h-1.938l-1.341-2.301H123.433z M123.433,80.317h0.32
					c0.597,0,0.896-0.264,0.896-0.792c0-0.436-0.293-0.653-0.878-0.653h-0.338V80.317z"/>
			</g>
		</g>
		<line class="st3" x1="99.091" y1="90.154" x2="124.357" y2="90.154"/>
		<line class="st3" x1="99.091" y1="93.126" x2="124.357" y2="93.126"/>
		<circle class="st3" cx="111.724" cy="103.103" r="5.532"/>
	</g>
	<g>
		<path class="st18" d="M170.476,134.07l-1.155-2.952h-3.72l-1.143,2.952h-1.092l3.669-9.318h0.908l3.65,9.318H170.476z
			 M168.984,130.148l-1.079-2.876c-0.14-0.364-0.284-0.81-0.432-1.339c-0.093,0.406-0.227,0.853-0.4,1.339l-1.092,2.876H168.984z"/>
		<path class="st18" d="M173.751,130.509c0.182-0.258,0.459-0.597,0.832-1.016l2.247-2.38h1.25l-2.818,2.964l3.015,3.993h-1.276
			l-2.457-3.288l-0.793,0.686v2.603h-1.041v-9.877h1.041v5.236c0,0.233-0.017,0.593-0.051,1.079H173.751z"/>
		<path class="st18" d="M181.781,133.327c0.186,0,0.366-0.014,0.539-0.041c0.174-0.027,0.312-0.056,0.413-0.086v0.807
			c-0.114,0.055-0.282,0.101-0.505,0.136c-0.222,0.036-0.422,0.054-0.6,0.054c-1.346,0-2.019-0.709-2.019-2.127v-4.139h-0.997
			v-0.508l0.997-0.438l0.444-1.485h0.609v1.612h2.019v0.818h-2.019v4.095c0,0.419,0.1,0.74,0.298,0.965
			C181.161,133.215,181.434,133.327,181.781,133.327z"/>
		<path class="st18" d="M184.035,125.228c0-0.241,0.059-0.418,0.178-0.53c0.118-0.112,0.266-0.168,0.443-0.168
			c0.17,0,0.316,0.058,0.438,0.172s0.185,0.29,0.185,0.526c0,0.237-0.062,0.414-0.185,0.53s-0.269,0.175-0.438,0.175
			c-0.178,0-0.325-0.059-0.443-0.175C184.094,125.642,184.035,125.465,184.035,125.228z M185.178,134.07h-1.055v-6.957h1.055V134.07
			z"/>
		<path class="st18" d="M190.351,134.197c-1.028,0-1.84-0.313-2.435-0.939c-0.594-0.626-0.892-1.496-0.892-2.609
			c0-1.121,0.276-2.012,0.829-2.672c0.551-0.66,1.293-0.99,2.225-0.99c0.871,0,1.561,0.286,2.068,0.86
			c0.508,0.574,0.762,1.33,0.762,2.269v0.667h-4.792c0.021,0.816,0.228,1.437,0.618,1.859c0.393,0.423,0.943,0.635,1.654,0.635
			c0.749,0,1.49-0.156,2.222-0.47v0.939c-0.372,0.161-0.725,0.276-1.058,0.346C191.221,134.162,190.82,134.197,190.351,134.197z
			 M190.064,127.868c-0.559,0-1.004,0.182-1.336,0.546c-0.332,0.364-0.527,0.868-0.587,1.511h3.638c0-0.664-0.148-1.173-0.445-1.526
			C191.038,128.045,190.615,127.868,190.064,127.868z"/>
		<path class="st18" d="M199.466,134.07v-4.501c0-0.567-0.129-0.99-0.388-1.27c-0.258-0.279-0.662-0.419-1.212-0.419
			c-0.728,0-1.261,0.197-1.6,0.591s-0.508,1.043-0.508,1.948v3.65h-1.054v-6.957h0.857l0.171,0.952h0.051
			c0.216-0.343,0.519-0.608,0.907-0.797c0.39-0.188,0.824-0.282,1.302-0.282c0.838,0,1.468,0.202,1.892,0.606
			s0.635,1.05,0.635,1.939v4.539H199.466z"/>
		<path class="st18" d="M202.1,131.068v-0.965h3.117v0.965H202.1z"/>
		<path class="st18" d="M155.829,143.113v0.666l-1.289,0.152c0.119,0.148,0.224,0.342,0.317,0.581s0.14,0.509,0.14,0.81
			c0,0.681-0.233,1.225-0.698,1.631s-1.104,0.609-1.917,0.609c-0.208,0-0.402-0.017-0.584-0.051
			c-0.449,0.237-0.673,0.536-0.673,0.896c0,0.19,0.078,0.331,0.235,0.422s0.425,0.137,0.806,0.137h1.231
			c0.753,0,1.332,0.158,1.736,0.476c0.404,0.317,0.606,0.779,0.606,1.384c0,0.771-0.309,1.357-0.927,1.762s-1.519,0.606-2.704,0.606
			c-0.91,0-1.611-0.169-2.104-0.508c-0.493-0.339-0.74-0.817-0.74-1.435c0-0.423,0.135-0.79,0.406-1.099
			c0.271-0.309,0.652-0.518,1.143-0.628c-0.178-0.081-0.327-0.206-0.448-0.375c-0.12-0.169-0.181-0.366-0.181-0.59
			c0-0.254,0.068-0.477,0.203-0.667s0.349-0.374,0.641-0.552c-0.36-0.148-0.653-0.4-0.879-0.756
			c-0.226-0.355-0.339-0.762-0.339-1.219c0-0.762,0.229-1.349,0.686-1.761s1.104-0.619,1.942-0.619c0.364,0,0.692,0.042,0.984,0.127
			H155.829z M150.281,151.238c0,0.376,0.159,0.662,0.476,0.856c0.317,0.195,0.772,0.292,1.365,0.292c0.884,0,1.54-0.132,1.964-0.396
			c0.426-0.265,0.638-0.623,0.638-1.076c0-0.376-0.116-0.638-0.349-0.784s-0.671-0.219-1.314-0.219h-1.263
			c-0.478,0-0.851,0.114-1.117,0.343S150.281,150.811,150.281,151.238z M150.853,145.341c0,0.487,0.138,0.855,0.413,1.104
			c0.275,0.25,0.658,0.375,1.149,0.375c1.028,0,1.542-0.5,1.542-1.498c0-1.045-0.521-1.568-1.562-1.568
			c-0.495,0-0.876,0.134-1.143,0.4S150.853,144.817,150.853,145.341z"/>
		<path class="st18" d="M160.196,150.197c-1.028,0-1.84-0.313-2.434-0.939c-0.595-0.626-0.892-1.496-0.892-2.609
			c0-1.121,0.276-2.012,0.829-2.672c0.552-0.66,1.293-0.99,2.225-0.99c0.872,0,1.562,0.286,2.069,0.86s0.762,1.33,0.762,2.269v0.667
			h-4.792c0.021,0.816,0.228,1.437,0.619,1.859c0.392,0.423,0.943,0.635,1.654,0.635c0.749,0,1.49-0.156,2.222-0.47v0.939
			c-0.373,0.161-0.725,0.276-1.057,0.346C161.067,150.162,160.666,150.197,160.196,150.197z M159.911,143.868
			c-0.559,0-1.004,0.182-1.336,0.546c-0.333,0.364-0.528,0.868-0.587,1.511h3.637c0-0.664-0.148-1.173-0.444-1.526
			S160.461,143.868,159.911,143.868z"/>
		<path class="st18" d="M169.039,148.172c0,0.647-0.241,1.147-0.724,1.498c-0.482,0.352-1.16,0.527-2.031,0.527
			c-0.922,0-1.642-0.146-2.158-0.438v-0.978c0.334,0.169,0.693,0.303,1.076,0.4c0.383,0.097,0.752,0.146,1.108,0.146
			c0.55,0,0.973-0.088,1.27-0.263s0.444-0.443,0.444-0.803c0-0.271-0.118-0.502-0.352-0.695c-0.235-0.193-0.693-0.42-1.375-0.682
			c-0.647-0.241-1.108-0.452-1.38-0.632c-0.273-0.18-0.477-0.384-0.609-0.612c-0.134-0.229-0.2-0.502-0.2-0.819
			c0-0.567,0.23-1.015,0.692-1.342s1.094-0.492,1.898-0.492c0.749,0,1.481,0.152,2.196,0.457l-0.375,0.856
			c-0.698-0.288-1.331-0.432-1.898-0.432c-0.5,0-0.876,0.079-1.13,0.235c-0.254,0.156-0.381,0.372-0.381,0.647
			c0,0.186,0.048,0.345,0.143,0.476c0.096,0.131,0.249,0.256,0.46,0.375c0.211,0.118,0.618,0.29,1.219,0.514
			c0.825,0.301,1.383,0.604,1.672,0.908C168.894,147.328,169.039,147.711,169.039,148.172z"/>
		<path class="st18" d="M173.691,150.197c-1.028,0-1.84-0.313-2.434-0.939c-0.595-0.626-0.892-1.496-0.892-2.609
			c0-1.121,0.276-2.012,0.829-2.672c0.552-0.66,1.293-0.99,2.225-0.99c0.872,0,1.562,0.286,2.069,0.86s0.762,1.33,0.762,2.269v0.667
			h-4.792c0.021,0.816,0.228,1.437,0.619,1.859c0.392,0.423,0.943,0.635,1.654,0.635c0.749,0,1.49-0.156,2.222-0.47v0.939
			c-0.373,0.161-0.725,0.276-1.057,0.346C174.562,150.162,174.161,150.197,173.691,150.197z M173.406,143.868
			c-0.559,0-1.004,0.182-1.336,0.546c-0.333,0.364-0.528,0.868-0.587,1.511h3.637c0-0.664-0.148-1.173-0.444-1.526
			S173.956,143.868,173.406,143.868z"/>
		<path class="st18" d="M179.1,150.07h-1.054v-9.877h1.054V150.07z"/>
		<path class="st18" d="M182.388,150.07h-1.054v-9.877h1.054V150.07z"/>
		<path class="st18" d="M189.109,148.172c0,0.647-0.24,1.147-0.723,1.498c-0.482,0.352-1.16,0.527-2.031,0.527
			c-0.923,0-1.643-0.146-2.158-0.438v-0.978c0.334,0.169,0.692,0.303,1.075,0.4c0.384,0.097,0.753,0.146,1.108,0.146
			c0.55,0,0.973-0.088,1.27-0.263c0.296-0.175,0.443-0.443,0.443-0.803c0-0.271-0.117-0.502-0.352-0.695
			c-0.235-0.193-0.693-0.42-1.375-0.682c-0.646-0.241-1.107-0.452-1.38-0.632c-0.273-0.18-0.477-0.384-0.609-0.612
			c-0.134-0.229-0.2-0.502-0.2-0.819c0-0.567,0.23-1.015,0.691-1.342c0.462-0.328,1.094-0.492,1.898-0.492
			c0.749,0,1.48,0.152,2.196,0.457l-0.374,0.856c-0.699-0.288-1.332-0.432-1.898-0.432c-0.5,0-0.876,0.079-1.13,0.235
			c-0.254,0.156-0.381,0.372-0.381,0.647c0,0.186,0.048,0.345,0.143,0.476c0.096,0.131,0.249,0.256,0.46,0.375
			c0.212,0.118,0.618,0.29,1.219,0.514c0.826,0.301,1.383,0.604,1.673,0.908S189.109,147.711,189.109,148.172z"/>
		<path class="st18" d="M193.604,150.197c-1.007,0-1.787-0.311-2.338-0.93c-0.553-0.62-0.829-1.497-0.829-2.631
			c0-1.164,0.28-2.062,0.841-2.697s1.359-0.952,2.396-0.952c0.334,0,0.668,0.036,1.003,0.107c0.335,0.072,0.597,0.157,0.787,0.254
			l-0.323,0.896c-0.233-0.093-0.487-0.171-0.762-0.232c-0.275-0.061-0.52-0.092-0.73-0.092c-1.414,0-2.12,0.901-2.12,2.704
			c0,0.855,0.173,1.511,0.517,1.968c0.346,0.457,0.856,0.686,1.533,0.686c0.58,0,1.175-0.125,1.784-0.374v0.933
			C194.896,150.076,194.311,150.197,193.604,150.197z"/>
		<path class="st18" d="M201.773,150.07v-4.501c0-0.567-0.129-0.99-0.387-1.27c-0.259-0.279-0.662-0.419-1.213-0.419
			c-0.732,0-1.267,0.199-1.603,0.597c-0.337,0.398-0.505,1.05-0.505,1.955v3.638h-1.054v-9.877h1.054v2.989
			c0,0.36-0.018,0.658-0.051,0.896h0.063c0.208-0.334,0.503-0.598,0.886-0.791s0.82-0.289,1.311-0.289
			c0.851,0,1.488,0.202,1.914,0.606c0.425,0.404,0.638,1.046,0.638,1.926v4.539H201.773z"/>
		<path class="st18" d="M209.27,150.07l-0.209-0.99h-0.051c-0.348,0.436-0.693,0.73-1.037,0.885
			c-0.346,0.155-0.776,0.232-1.293,0.232c-0.689,0-1.23-0.178-1.621-0.533c-0.392-0.355-0.588-0.861-0.588-1.518
			c0-1.405,1.124-2.141,3.371-2.209l1.181-0.038v-0.432c0-0.546-0.118-0.949-0.353-1.209s-0.61-0.391-1.127-0.391
			c-0.579,0-1.235,0.178-1.967,0.533l-0.324-0.806c0.343-0.187,0.719-0.333,1.127-0.438c0.408-0.105,0.817-0.158,1.229-0.158
			c0.829,0,1.443,0.184,1.844,0.552s0.6,0.959,0.6,1.771v4.748H209.27z M206.89,149.327c0.655,0,1.171-0.18,1.546-0.539
			c0.375-0.36,0.562-0.863,0.562-1.511v-0.629l-1.054,0.045c-0.838,0.029-1.441,0.159-1.812,0.39
			c-0.37,0.231-0.555,0.589-0.555,1.076c0,0.381,0.115,0.671,0.346,0.87C206.152,149.228,206.475,149.327,206.89,149.327z"/>
		<path class="st18" d="M215.357,143.932h-1.771v6.139h-1.053v-6.139h-1.244v-0.476l1.244-0.381v-0.388
			c0-1.709,0.746-2.564,2.24-2.564c0.368,0,0.8,0.074,1.295,0.223l-0.273,0.844c-0.406-0.131-0.753-0.196-1.041-0.196
			c-0.397,0-0.691,0.132-0.882,0.396s-0.286,0.688-0.286,1.272v0.451h1.771V143.932z"/>
		<path class="st18" d="M218.874,149.327c0.187,0,0.366-0.014,0.54-0.041c0.173-0.027,0.311-0.056,0.412-0.086v0.807
			c-0.114,0.055-0.282,0.101-0.505,0.136c-0.222,0.036-0.422,0.054-0.6,0.054c-1.346,0-2.019-0.709-2.019-2.127v-4.139h-0.996
			v-0.508l0.996-0.438l0.444-1.485h0.609v1.612h2.019v0.818h-2.019v4.095c0,0.419,0.1,0.74,0.298,0.965
			C218.254,149.215,218.527,149.327,218.874,149.327z"/>
		<path class="st18" d="M172.387,162.509c0-1.121,0.164-2.171,0.492-3.148c0.328-0.978,0.801-1.834,1.418-2.57h1.028
			c-0.609,0.816-1.067,1.714-1.375,2.691c-0.307,0.978-0.46,1.982-0.46,3.015c0,1.016,0.157,2.008,0.47,2.978
			c0.313,0.969,0.764,1.854,1.352,2.653h-1.016c-0.622-0.72-1.096-1.56-1.422-2.521C172.55,164.646,172.387,163.613,172.387,162.509
			z"/>
		<path class="st18" d="M182.822,166.07l-1.155-2.952h-3.72l-1.143,2.952h-1.092l3.669-9.318h0.908l3.65,9.318H182.822z
			 M181.331,162.148l-1.079-2.876c-0.14-0.364-0.284-0.81-0.432-1.339c-0.093,0.406-0.227,0.853-0.4,1.339l-1.092,2.876H181.331z"/>
		<path class="st18" d="M189.297,161.208h3.154v4.513c-0.49,0.157-0.99,0.275-1.498,0.355c-0.508,0.081-1.096,0.121-1.764,0.121
			c-1.405,0-2.5-0.418-3.282-1.254s-1.175-2.007-1.175-3.514c0-0.965,0.194-1.81,0.581-2.536c0.388-0.726,0.944-1.28,1.673-1.663
			s1.58-0.575,2.559-0.575c0.99,0,1.912,0.182,2.768,0.546l-0.42,0.952c-0.838-0.355-1.644-0.533-2.418-0.533
			c-1.13,0-2.012,0.337-2.646,1.01s-0.953,1.605-0.953,2.799c0,1.253,0.307,2.203,0.918,2.851s1.51,0.971,2.694,0.971
			c0.644,0,1.271-0.074,1.886-0.222v-2.856h-2.076V161.208z"/>
		<path class="st18" d="M196.73,162.509c0,1.113-0.164,2.15-0.492,3.11c-0.328,0.961-0.801,1.797-1.419,2.508h-1.016
			c0.589-0.796,1.039-1.679,1.353-2.65c0.312-0.971,0.469-1.965,0.469-2.98c0-1.032-0.152-2.037-0.459-3.015
			c-0.308-0.978-0.766-1.875-1.375-2.691h1.028c0.622,0.74,1.097,1.601,1.422,2.58S196.73,161.396,196.73,162.509z"/>
	</g>
	<g>
		<path class="st18" d="M24.779,142.422H27.4c1.231,0,2.122,0.185,2.672,0.553s0.825,0.95,0.825,1.745
			c0,0.55-0.153,1.004-0.46,1.362c-0.307,0.358-0.754,0.589-1.342,0.695v0.063c1.409,0.241,2.114,0.982,2.114,2.222
			c0,0.83-0.28,1.477-0.841,1.942c-0.561,0.466-1.345,0.698-2.352,0.698h-3.237V142.422z M25.858,146.396h1.777
			c0.762,0,1.31-0.119,1.644-0.358s0.501-0.642,0.501-1.209c0-0.521-0.186-0.896-0.559-1.127s-0.965-0.346-1.777-0.346h-1.587
			V146.396z M25.858,147.31v3.473h1.936c0.749,0,1.313-0.146,1.691-0.435c0.379-0.29,0.568-0.744,0.568-1.362
			c0-0.575-0.193-0.999-0.581-1.27c-0.387-0.271-0.976-0.406-1.768-0.406H25.858z"/>
		<path class="st18" d="M39.048,148.218c0,1.134-0.286,2.02-0.857,2.656s-1.36,0.955-2.368,0.955c-0.622,0-1.174-0.146-1.657-0.438
			s-0.855-0.711-1.117-1.257s-0.394-1.185-0.394-1.917c0-1.134,0.284-2.018,0.851-2.65s1.354-0.949,2.361-0.949
			c0.973,0,1.747,0.324,2.32,0.972C38.762,146.237,39.048,147.113,39.048,148.218z M33.748,148.218c0,0.889,0.178,1.565,0.533,2.031
			c0.355,0.465,0.878,0.698,1.568,0.698s1.213-0.232,1.571-0.695c0.357-0.463,0.536-1.142,0.536-2.034
			c0-0.885-0.179-1.557-0.536-2.016c-0.358-0.459-0.886-0.688-1.584-0.688c-0.69,0-1.21,0.226-1.562,0.679
			C33.924,146.646,33.748,147.32,33.748,148.218z M34.059,142.861c0-0.22,0.056-0.379,0.168-0.477
			c0.112-0.097,0.247-0.146,0.403-0.146c0.161,0,0.299,0.048,0.416,0.146c0.116,0.098,0.174,0.256,0.174,0.477
			c0,0.211-0.058,0.369-0.174,0.473c-0.117,0.104-0.255,0.155-0.416,0.155c-0.157,0-0.291-0.052-0.403-0.155
			C34.115,143.23,34.059,143.072,34.059,142.861z M36.478,142.861c0-0.22,0.056-0.379,0.168-0.477
			c0.112-0.097,0.246-0.146,0.403-0.146s0.293,0.048,0.41,0.146c0.116,0.098,0.174,0.256,0.174,0.477
			c0,0.211-0.058,0.369-0.174,0.473c-0.117,0.104-0.253,0.155-0.41,0.155s-0.291-0.052-0.403-0.155
			C36.534,143.23,36.478,143.072,36.478,142.861z"/>
		<path class="st18" d="M44.069,144.618c0.309,0,0.586,0.025,0.832,0.076l-0.146,0.978c-0.288-0.063-0.542-0.095-0.762-0.095
			c-0.563,0-1.044,0.229-1.444,0.686c-0.399,0.457-0.6,1.026-0.6,1.707v3.732h-1.054v-6.957h0.87l0.121,1.289h0.051
			c0.258-0.453,0.569-0.802,0.933-1.048C43.233,144.741,43.633,144.618,44.069,144.618z"/>
		<path class="st18" d="M50.69,149.805c0,0.647-0.241,1.146-0.724,1.498c-0.482,0.351-1.16,0.526-2.031,0.526
			c-0.922,0-1.642-0.146-2.158-0.438v-0.978c0.334,0.169,0.693,0.302,1.076,0.399c0.383,0.098,0.752,0.146,1.108,0.146
			c0.55,0,0.973-0.088,1.27-0.264s0.444-0.443,0.444-0.803c0-0.271-0.118-0.503-0.352-0.695c-0.235-0.192-0.693-0.42-1.375-0.683
			c-0.647-0.241-1.108-0.451-1.38-0.631c-0.273-0.18-0.477-0.384-0.609-0.613c-0.134-0.229-0.2-0.501-0.2-0.818
			c0-0.567,0.23-1.015,0.692-1.343s1.094-0.492,1.898-0.492c0.749,0,1.481,0.152,2.196,0.457l-0.375,0.857
			c-0.698-0.288-1.331-0.432-1.898-0.432c-0.5,0-0.876,0.078-1.13,0.234c-0.254,0.157-0.381,0.373-0.381,0.647
			c0,0.187,0.048,0.345,0.143,0.477c0.096,0.131,0.249,0.256,0.46,0.374c0.211,0.119,0.618,0.29,1.219,0.515
			c0.825,0.3,1.383,0.603,1.672,0.907C50.545,148.96,50.69,149.343,50.69,149.805z"/>
		<path class="st18" d="M55.343,151.829c-1.028,0-1.84-0.313-2.434-0.939c-0.595-0.626-0.892-1.496-0.892-2.608
			c0-1.122,0.276-2.013,0.829-2.673c0.552-0.66,1.293-0.99,2.225-0.99c0.872,0,1.562,0.287,2.069,0.86s0.762,1.33,0.762,2.27v0.666
			h-4.792c0.021,0.817,0.228,1.437,0.619,1.86c0.392,0.423,0.943,0.635,1.654,0.635c0.749,0,1.49-0.157,2.222-0.47v0.939
			c-0.373,0.161-0.725,0.276-1.057,0.346C56.213,151.795,55.812,151.829,55.343,151.829z M55.057,145.501
			c-0.559,0-1.004,0.182-1.336,0.546c-0.333,0.364-0.528,0.867-0.587,1.511h3.637c0-0.665-0.148-1.174-0.444-1.527
			S55.607,145.501,55.057,145.501z"/>
	</g>
	<g>
		<path class="st18" d="M248.263,94.744l-1.155-2.952h-3.72l-1.143,2.952h-1.092l3.669-9.318h0.907l3.65,9.318H248.263z
			 M246.771,90.821l-1.079-2.875c-0.14-0.364-0.283-0.811-0.432-1.339c-0.093,0.406-0.227,0.853-0.399,1.339l-1.092,2.875H246.771z"
			/>
		<path class="st18" d="M251.538,91.183c0.182-0.258,0.459-0.597,0.831-1.016l2.247-2.38h1.251l-2.818,2.964l3.015,3.993h-1.275
			l-2.457-3.288l-0.793,0.686v2.603h-1.041v-9.877h1.041v5.237c0,0.232-0.018,0.593-0.051,1.079H251.538z"/>
		<path class="st18" d="M259.567,94.001c0.187,0,0.366-0.014,0.54-0.041c0.173-0.028,0.311-0.057,0.412-0.086v0.806
			c-0.114,0.055-0.282,0.101-0.505,0.136c-0.222,0.036-0.422,0.054-0.6,0.054c-1.346,0-2.019-0.708-2.019-2.126v-4.139H256.4v-0.508
			l0.996-0.438l0.444-1.485h0.609v1.612h2.019v0.819h-2.019V92.7c0,0.419,0.1,0.741,0.299,0.965
			C258.947,93.889,259.221,94.001,259.567,94.001z"/>
		<path class="st18" d="M261.821,85.902c0-0.241,0.059-0.418,0.178-0.53c0.118-0.112,0.267-0.168,0.444-0.168
			c0.169,0,0.315,0.057,0.438,0.171c0.123,0.114,0.185,0.29,0.185,0.527s-0.062,0.414-0.185,0.53
			c-0.122,0.116-0.269,0.174-0.438,0.174c-0.178,0-0.326-0.058-0.444-0.174C261.88,86.315,261.821,86.139,261.821,85.902z
			 M262.964,94.744h-1.054v-6.957h1.054V94.744z"/>
		<path class="st18" d="M268.137,94.871c-1.028,0-1.84-0.313-2.434-0.939c-0.595-0.626-0.893-1.496-0.893-2.609
			c0-1.121,0.276-2.012,0.829-2.672c0.552-0.66,1.293-0.99,2.225-0.99c0.871,0,1.562,0.287,2.069,0.86
			c0.508,0.574,0.762,1.33,0.762,2.27v0.667h-4.793c0.021,0.817,0.228,1.437,0.619,1.86s0.942,0.635,1.653,0.635
			c0.749,0,1.49-0.156,2.222-0.47v0.939c-0.372,0.161-0.725,0.276-1.057,0.346C269.008,94.836,268.606,94.871,268.137,94.871z
			 M267.852,88.542c-0.559,0-1.004,0.182-1.336,0.546c-0.333,0.364-0.528,0.867-0.588,1.511h3.638c0-0.664-0.148-1.173-0.444-1.526
			C268.824,88.719,268.401,88.542,267.852,88.542z"/>
		<path class="st18" d="M277.252,94.744v-4.5c0-0.567-0.129-0.99-0.387-1.27c-0.259-0.279-0.662-0.419-1.213-0.419
			c-0.728,0-1.261,0.197-1.6,0.59c-0.338,0.394-0.508,1.043-0.508,1.949v3.65h-1.054v-6.957h0.857l0.171,0.952h0.051
			c0.216-0.343,0.519-0.608,0.908-0.796c0.389-0.188,0.823-0.283,1.301-0.283c0.838,0,1.469,0.202,1.892,0.606
			c0.424,0.404,0.635,1.051,0.635,1.939v4.539H277.252z"/>
		<path class="st18" d="M279.887,91.741v-0.965h3.116v0.965H279.887z"/>
		<path class="st18" d="M246.783,110.744v-9.28h1.079v9.28H246.783z"/>
		<path class="st18" d="M255.01,110.744v-4.5c0-0.567-0.129-0.99-0.387-1.27c-0.259-0.279-0.662-0.419-1.213-0.419
			c-0.728,0-1.261,0.197-1.6,0.59c-0.338,0.394-0.508,1.043-0.508,1.949v3.65h-1.054v-6.957h0.857l0.171,0.952h0.051
			c0.216-0.343,0.519-0.608,0.908-0.796c0.389-0.188,0.823-0.283,1.301-0.283c0.838,0,1.469,0.202,1.892,0.606
			c0.424,0.404,0.635,1.051,0.635,1.939v4.539H255.01z"/>
		<path class="st18" d="M262.964,109.811h-0.058c-0.486,0.707-1.214,1.06-2.184,1.06c-0.909,0-1.617-0.311-2.123-0.933
			s-0.759-1.507-0.759-2.653s0.254-2.038,0.762-2.672s1.215-0.952,2.12-0.952c0.944,0,1.668,0.343,2.171,1.028h0.083l-0.045-0.501
			l-0.025-0.489v-2.831h1.054v9.877h-0.856L262.964,109.811z M260.856,109.988c0.719,0,1.241-0.196,1.564-0.587
			c0.324-0.392,0.485-1.023,0.485-1.895v-0.222c0-0.986-0.164-1.689-0.491-2.11c-0.328-0.421-0.853-0.632-1.571-0.632
			c-0.618,0-1.091,0.24-1.419,0.721c-0.328,0.48-0.492,1.158-0.492,2.034c0,0.889,0.163,1.56,0.489,2.012
			C259.747,109.762,260.226,109.988,260.856,109.988z"/>
		<path class="st18" d="M269.134,110.871c-1.028,0-1.84-0.313-2.435-0.939s-0.892-1.496-0.892-2.609
			c0-1.121,0.275-2.012,0.828-2.672c0.552-0.66,1.294-0.99,2.225-0.99c0.872,0,1.562,0.287,2.069,0.86
			c0.508,0.574,0.762,1.33,0.762,2.27v0.667h-4.792c0.021,0.817,0.228,1.437,0.618,1.86c0.392,0.423,0.943,0.635,1.654,0.635
			c0.749,0,1.489-0.156,2.222-0.47v0.939c-0.373,0.161-0.725,0.276-1.058,0.346C270.004,110.836,269.604,110.871,269.134,110.871z
			 M268.848,104.542c-0.559,0-1.004,0.182-1.336,0.546s-0.528,0.867-0.587,1.511h3.637c0-0.664-0.147-1.173-0.444-1.526
			C269.821,104.719,269.398,104.542,268.848,104.542z"/>
		<path class="st18" d="M275.164,107.183l-2.419-3.396h1.2l1.834,2.666l1.828-2.666h1.188l-2.419,3.396l2.546,3.561h-1.193
			l-1.949-2.818l-1.968,2.818h-1.193L275.164,107.183z"/>
	</g>
	<g>
		<path class="st18" d="M261.296,222.319h-1.079v-9.28h5.174v0.959h-4.095v3.396h3.847v0.959h-3.847V222.319z"/>
		<path class="st18" d="M272.772,218.834c0,1.134-0.285,2.02-0.856,2.656s-1.36,0.955-2.368,0.955c-0.622,0-1.174-0.146-1.656-0.438
			s-0.855-0.711-1.117-1.257c-0.263-0.546-0.394-1.185-0.394-1.917c0-1.134,0.283-2.018,0.851-2.65
			c0.566-0.633,1.354-0.949,2.361-0.949c0.973,0,1.746,0.324,2.319,0.972C272.486,216.854,272.772,217.73,272.772,218.834z
			 M267.473,218.834c0,0.889,0.178,1.565,0.533,2.031c0.355,0.465,0.878,0.698,1.567,0.698c0.69,0,1.214-0.232,1.571-0.695
			s0.536-1.142,0.536-2.034c0-0.885-0.179-1.557-0.536-2.016s-0.886-0.688-1.584-0.688c-0.689,0-1.21,0.226-1.562,0.679
			C267.648,217.262,267.473,217.937,267.473,218.834z"/>
		<path class="st18" d="M279.381,222.319v-4.5c0-0.567-0.129-0.99-0.388-1.27c-0.258-0.279-0.662-0.419-1.212-0.419
			c-0.729,0-1.262,0.196-1.6,0.59c-0.339,0.394-0.508,1.043-0.508,1.949v3.649h-1.054v-6.957h0.856l0.172,0.952h0.051
			c0.216-0.343,0.519-0.608,0.907-0.796c0.39-0.188,0.823-0.283,1.302-0.283c0.838,0,1.468,0.202,1.892,0.606
			c0.423,0.404,0.635,1.051,0.635,1.939v4.538H279.381z"/>
		<path class="st18" d="M287.334,221.386h-0.057c-0.487,0.707-1.215,1.06-2.184,1.06c-0.91,0-1.618-0.311-2.124-0.933
			c-0.505-0.622-0.758-1.507-0.758-2.653c0-1.147,0.254-2.038,0.762-2.673s1.214-0.952,2.12-0.952c0.943,0,1.667,0.343,2.171,1.028
			h0.082l-0.044-0.501l-0.025-0.489v-2.831h1.054v9.877h-0.857L287.334,221.386z M285.227,221.564c0.72,0,1.241-0.196,1.564-0.587
			c0.324-0.391,0.486-1.023,0.486-1.895v-0.222c0-0.986-0.164-1.689-0.492-2.111s-0.852-0.631-1.571-0.631
			c-0.617,0-1.091,0.24-1.419,0.72c-0.327,0.48-0.491,1.159-0.491,2.035c0,0.889,0.163,1.559,0.488,2.012
			C284.118,221.337,284.597,221.564,285.227,221.564z"/>
		<path class="st18" d="M295.053,220.421c0,0.647-0.241,1.146-0.724,1.498c-0.482,0.351-1.159,0.526-2.031,0.526
			c-0.922,0-1.642-0.146-2.158-0.438v-0.978c0.335,0.169,0.693,0.302,1.076,0.399c0.383,0.098,0.752,0.146,1.107,0.146
			c0.551,0,0.974-0.088,1.27-0.264c0.297-0.176,0.444-0.443,0.444-0.803c0-0.271-0.117-0.503-0.352-0.695
			c-0.235-0.192-0.693-0.42-1.375-0.683c-0.647-0.241-1.107-0.451-1.38-0.631c-0.273-0.18-0.477-0.384-0.609-0.613
			c-0.134-0.229-0.2-0.501-0.2-0.818c0-0.567,0.23-1.015,0.691-1.343c0.462-0.328,1.094-0.492,1.898-0.492
			c0.749,0,1.48,0.152,2.196,0.457l-0.375,0.857c-0.698-0.288-1.331-0.432-1.897-0.432c-0.5,0-0.876,0.078-1.13,0.234
			c-0.254,0.157-0.381,0.373-0.381,0.647c0,0.187,0.048,0.345,0.143,0.477c0.096,0.131,0.249,0.256,0.46,0.374
			c0.212,0.119,0.618,0.29,1.219,0.515c0.825,0.3,1.383,0.603,1.673,0.907S295.053,219.96,295.053,220.421z"/>
	</g>
	<g>
		<path class="st18" d="M17.865,258.752l-1.155-2.951h-3.72l-1.143,2.951h-1.092l3.669-9.318h0.908l3.65,9.318H17.865z
			 M16.373,254.829l-1.079-2.875c-0.14-0.364-0.284-0.811-0.432-1.34c-0.093,0.406-0.227,0.853-0.4,1.34l-1.092,2.875H16.373z"/>
		<path class="st18" d="M21.14,255.192c0.182-0.258,0.459-0.597,0.832-1.016l2.247-2.381h1.25l-2.818,2.965l3.015,3.992H24.39
			l-2.457-3.288l-0.793,0.686v2.603h-1.041v-9.877h1.041v5.237c0,0.232-0.017,0.592-0.051,1.079H21.14z"/>
		<path class="st18" d="M29.17,258.01c0.186,0,0.366-0.014,0.54-0.042s0.311-0.056,0.413-0.085v0.806
			c-0.114,0.055-0.282,0.101-0.505,0.137c-0.222,0.036-0.422,0.054-0.6,0.054c-1.346,0-2.019-0.708-2.019-2.126v-4.139h-0.997
			v-0.508l0.997-0.438l0.444-1.485h0.609v1.612h2.019v0.819h-2.019v4.094c0,0.419,0.1,0.741,0.298,0.965
			C28.55,257.898,28.823,258.01,29.17,258.01z"/>
		<path class="st18" d="M31.423,249.91c0-0.241,0.059-0.418,0.178-0.53s0.267-0.168,0.444-0.168c0.169,0,0.315,0.057,0.438,0.171
			s0.184,0.29,0.184,0.527c0,0.237-0.062,0.413-0.184,0.53s-0.269,0.174-0.438,0.174c-0.178,0-0.326-0.058-0.444-0.174
			S31.423,250.147,31.423,249.91z M32.566,258.752h-1.054v-6.957h1.054V258.752z"/>
		<path class="st18" d="M37.739,258.879c-1.028,0-1.84-0.313-2.434-0.939c-0.595-0.626-0.892-1.496-0.892-2.608
			c0-1.122,0.276-2.013,0.829-2.673c0.552-0.66,1.293-0.99,2.225-0.99c0.872,0,1.562,0.287,2.069,0.86s0.762,1.33,0.762,2.27v0.666
			h-4.792c0.021,0.817,0.228,1.437,0.619,1.86c0.392,0.423,0.943,0.635,1.654,0.635c0.749,0,1.49-0.157,2.222-0.47v0.939
			c-0.373,0.161-0.725,0.276-1.057,0.346C38.61,258.844,38.209,258.879,37.739,258.879z M37.454,252.551
			c-0.559,0-1.004,0.182-1.336,0.546c-0.333,0.364-0.528,0.867-0.587,1.511h3.637c0-0.665-0.148-1.174-0.444-1.527
			S38.004,252.551,37.454,252.551z"/>
		<path class="st18" d="M46.854,258.752v-4.5c0-0.567-0.129-0.99-0.387-1.27s-0.662-0.419-1.212-0.419
			c-0.728,0-1.261,0.196-1.6,0.59s-0.508,1.043-0.508,1.949v3.649h-1.054v-6.957h0.857l0.171,0.952h0.051
			c0.216-0.343,0.519-0.608,0.908-0.796s0.823-0.283,1.301-0.283c0.838,0,1.468,0.202,1.892,0.606s0.635,1.051,0.635,1.939v4.538
			H46.854z"/>
		<path class="st18" d="M49.489,255.75v-0.965h3.117v0.965H49.489z"/>
		<path class="st18" d="M18.998,268.614h-1.771v6.138h-1.054v-6.138h-1.244v-0.477l1.244-0.381v-0.387
			c0-1.71,0.747-2.564,2.241-2.564c0.368,0,0.8,0.074,1.295,0.222l-0.273,0.845c-0.406-0.131-0.753-0.197-1.041-0.197
			c-0.398,0-0.692,0.133-0.882,0.397s-0.286,0.689-0.286,1.273v0.45h1.771V268.614z"/>
		<path class="st18" d="M26.272,271.268c0,1.134-0.286,2.02-0.857,2.656s-1.36,0.955-2.368,0.955c-0.622,0-1.174-0.146-1.657-0.438
			s-0.855-0.711-1.117-1.257S19.88,272,19.88,271.268c0-1.134,0.284-2.018,0.851-2.65s1.354-0.949,2.361-0.949
			c0.973,0,1.747,0.324,2.32,0.972C25.986,269.287,26.272,270.163,26.272,271.268z M20.972,271.268c0,0.889,0.178,1.565,0.533,2.031
			c0.355,0.465,0.878,0.698,1.568,0.698s1.213-0.232,1.571-0.695c0.357-0.463,0.536-1.142,0.536-2.034
			c0-0.885-0.179-1.557-0.536-2.016c-0.358-0.459-0.886-0.688-1.584-0.688c-0.69,0-1.21,0.226-1.562,0.679
			C21.148,269.695,20.972,270.37,20.972,271.268z"/>
		<path class="st18" d="M32.88,274.752v-4.5c0-0.567-0.129-0.99-0.387-1.27s-0.662-0.419-1.212-0.419c-0.728,0-1.261,0.196-1.6,0.59
			s-0.508,1.043-0.508,1.949v3.649H28.12v-6.957h0.857l0.171,0.952h0.051c0.216-0.343,0.519-0.608,0.908-0.796
			s0.823-0.283,1.301-0.283c0.838,0,1.468,0.202,1.892,0.606s0.635,1.051,0.635,1.939v4.538H32.88z"/>
		<path class="st18" d="M40.834,273.819h-0.057c-0.487,0.707-1.214,1.06-2.184,1.06c-0.91,0-1.618-0.311-2.124-0.933
			c-0.505-0.622-0.758-1.507-0.758-2.653c0-1.147,0.254-2.038,0.762-2.673s1.214-0.952,2.12-0.952c0.944,0,1.667,0.343,2.171,1.028
			h0.083l-0.044-0.501l-0.025-0.489v-2.831h1.054v9.877h-0.857L40.834,273.819z M38.727,273.997c0.719,0,1.241-0.196,1.564-0.587
			c0.324-0.391,0.486-1.023,0.486-1.895v-0.222c0-0.986-0.164-1.689-0.492-2.111c-0.328-0.421-0.852-0.631-1.571-0.631
			c-0.618,0-1.091,0.24-1.419,0.72c-0.328,0.48-0.492,1.159-0.492,2.035c0,0.889,0.163,1.559,0.489,2.012
			C37.618,273.771,38.096,273.997,38.727,273.997z"/>
		<path class="st18" d="M48.553,272.855c0,0.647-0.241,1.146-0.724,1.498c-0.482,0.351-1.16,0.526-2.031,0.526
			c-0.922,0-1.642-0.146-2.158-0.438v-0.978c0.334,0.169,0.693,0.302,1.076,0.399c0.383,0.098,0.752,0.146,1.108,0.146
			c0.55,0,0.973-0.088,1.27-0.264s0.444-0.443,0.444-0.803c0-0.271-0.118-0.503-0.352-0.695c-0.235-0.192-0.693-0.42-1.375-0.683
			c-0.647-0.241-1.108-0.451-1.38-0.631c-0.273-0.18-0.477-0.384-0.609-0.613c-0.134-0.229-0.2-0.501-0.2-0.818
			c0-0.567,0.23-1.015,0.692-1.343s1.094-0.492,1.898-0.492c0.749,0,1.481,0.152,2.196,0.457l-0.375,0.857
			c-0.698-0.288-1.331-0.432-1.898-0.432c-0.5,0-0.876,0.078-1.13,0.234c-0.254,0.157-0.381,0.373-0.381,0.647
			c0,0.187,0.048,0.345,0.143,0.477c0.096,0.131,0.249,0.256,0.46,0.374c0.211,0.119,0.618,0.29,1.219,0.515
			c0.825,0.3,1.383,0.603,1.672,0.907C48.408,272.01,48.553,272.393,48.553,272.855z"/>
	</g>
	<g>
		<path class="st18" d="M135.827,242.161c0,1.532-0.416,2.703-1.247,3.514c-0.832,0.81-2.028,1.215-3.59,1.215h-2.571v-9.28h2.844
			c1.443,0,2.564,0.4,3.364,1.2S135.827,240.727,135.827,242.161z M134.684,242.199c0-1.21-0.304-2.122-0.911-2.736
			c-0.607-0.614-1.509-0.92-2.707-0.92h-1.568v7.414h1.314c1.287,0,2.253-0.316,2.901-0.949
			C134.36,244.376,134.684,243.44,134.684,242.199z"/>
		<path class="st18" d="M137.648,238.048c0-0.241,0.059-0.418,0.178-0.53c0.119-0.112,0.267-0.168,0.444-0.168
			c0.169,0,0.315,0.057,0.438,0.171s0.184,0.29,0.184,0.527s-0.062,0.414-0.184,0.53c-0.123,0.116-0.269,0.174-0.438,0.174
			c-0.178,0-0.326-0.058-0.444-0.174C137.708,238.462,137.648,238.285,137.648,238.048z M138.791,246.89h-1.054v-6.957h1.054V246.89
			z"/>
		<path class="st18" d="M142.549,246.89l-2.641-6.957h1.13l1.498,4.126c0.338,0.965,0.538,1.591,0.597,1.879h0.051
			c0.046-0.224,0.193-0.689,0.441-1.393c0.247-0.705,0.803-2.242,1.666-4.612h1.13l-2.641,6.957H142.549z"/>
		<path class="st18" d="M147.449,238.048c0-0.241,0.059-0.418,0.178-0.53c0.119-0.112,0.267-0.168,0.444-0.168
			c0.169,0,0.315,0.057,0.438,0.171s0.184,0.29,0.184,0.527s-0.062,0.414-0.184,0.53c-0.123,0.116-0.269,0.174-0.438,0.174
			c-0.178,0-0.326-0.058-0.444-0.174C147.508,238.462,147.449,238.285,147.449,238.048z M148.592,246.89h-1.054v-6.957h1.054V246.89
			z"/>
		<path class="st18" d="M155.562,245.957h-0.057c-0.487,0.707-1.214,1.06-2.184,1.06c-0.91,0-1.618-0.311-2.124-0.933
			c-0.505-0.622-0.758-1.507-0.758-2.653s0.254-2.038,0.762-2.672s1.214-0.952,2.12-0.952c0.944,0,1.667,0.343,2.171,1.028h0.083
			l-0.044-0.501l-0.025-0.489v-2.831h1.054v9.877h-0.857L155.562,245.957z M153.454,246.135c0.719,0,1.241-0.196,1.564-0.587
			c0.324-0.392,0.486-1.023,0.486-1.895v-0.222c0-0.986-0.164-1.689-0.492-2.11c-0.328-0.421-0.852-0.632-1.571-0.632
			c-0.618,0-1.091,0.24-1.419,0.721c-0.328,0.48-0.492,1.158-0.492,2.034c0,0.889,0.163,1.56,0.489,2.012
			S152.824,246.135,153.454,246.135z"/>
		<path class="st18" d="M161.731,247.017c-1.028,0-1.84-0.313-2.434-0.939c-0.595-0.626-0.892-1.496-0.892-2.609
			c0-1.121,0.276-2.012,0.829-2.672c0.552-0.66,1.293-0.99,2.225-0.99c0.872,0,1.562,0.287,2.069,0.86
			c0.508,0.574,0.762,1.33,0.762,2.27v0.667h-4.792c0.021,0.817,0.228,1.437,0.619,1.86c0.392,0.423,0.943,0.635,1.654,0.635
			c0.749,0,1.49-0.156,2.222-0.47v0.939c-0.373,0.161-0.725,0.276-1.057,0.346C162.602,246.983,162.201,247.017,161.731,247.017z
			 M161.446,240.689c-0.559,0-1.004,0.182-1.336,0.546c-0.333,0.364-0.528,0.867-0.587,1.511h3.637c0-0.664-0.148-1.173-0.444-1.526
			C162.419,240.865,161.996,240.689,161.446,240.689z"/>
		<path class="st18" d="M170.847,246.89v-4.5c0-0.567-0.129-0.99-0.387-1.27s-0.662-0.419-1.212-0.419
			c-0.728,0-1.261,0.197-1.6,0.59s-0.508,1.043-0.508,1.949v3.65h-1.054v-6.957h0.857l0.171,0.952h0.051
			c0.216-0.343,0.519-0.608,0.908-0.796c0.389-0.188,0.823-0.283,1.301-0.283c0.838,0,1.468,0.202,1.892,0.606
			c0.423,0.404,0.635,1.051,0.635,1.939v4.539H170.847z"/>
		<path class="st18" d="M178.8,245.957h-0.057c-0.487,0.707-1.214,1.06-2.184,1.06c-0.91,0-1.618-0.311-2.124-0.933
			c-0.505-0.622-0.758-1.507-0.758-2.653s0.254-2.038,0.762-2.672s1.214-0.952,2.12-0.952c0.944,0,1.667,0.343,2.171,1.028h0.083
			l-0.044-0.501l-0.025-0.489v-2.831h1.054v9.877h-0.857L178.8,245.957z M176.693,246.135c0.719,0,1.241-0.196,1.564-0.587
			c0.324-0.392,0.486-1.023,0.486-1.895v-0.222c0-0.986-0.164-1.689-0.492-2.11c-0.328-0.421-0.852-0.632-1.571-0.632
			c-0.618,0-1.091,0.24-1.419,0.721c-0.328,0.48-0.492,1.158-0.492,2.034c0,0.889,0.163,1.56,0.489,2.012
			S176.062,246.135,176.693,246.135z"/>
		<path class="st18" d="M184.971,247.017c-1.028,0-1.84-0.313-2.435-0.939s-0.892-1.496-0.892-2.609
			c0-1.121,0.276-2.012,0.829-2.672c0.552-0.66,1.294-0.99,2.225-0.99c0.872,0,1.562,0.287,2.069,0.86
			c0.508,0.574,0.762,1.33,0.762,2.27v0.667h-4.792c0.021,0.817,0.228,1.437,0.618,1.86c0.392,0.423,0.943,0.635,1.654,0.635
			c0.749,0,1.489-0.156,2.222-0.47v0.939c-0.373,0.161-0.725,0.276-1.058,0.346C185.841,246.983,185.44,247.017,184.971,247.017z
			 M184.685,240.689c-0.559,0-1.004,0.182-1.336,0.546s-0.528,0.867-0.587,1.511h3.637c0-0.664-0.147-1.173-0.444-1.526
			C185.658,240.865,185.235,240.689,184.685,240.689z"/>
	</g>
	<g>
		<path class="st18" d="M225.032,338.29h-5.173v-9.28h5.173v0.958h-4.094v2.99h3.847v0.952h-3.847v3.415h4.094V338.29z"/>
		<path class="st18" d="M235.798,338.29v-4.526c0-0.554-0.118-0.97-0.355-1.247c-0.236-0.277-0.604-0.416-1.104-0.416
			c-0.655,0-1.141,0.188-1.453,0.565c-0.313,0.376-0.47,0.956-0.47,1.739v3.885h-1.054v-4.526c0-0.554-0.119-0.97-0.355-1.247
			c-0.237-0.277-0.607-0.416-1.111-0.416c-0.66,0-1.144,0.198-1.45,0.594s-0.46,1.044-0.46,1.945v3.65h-1.054v-6.957h0.856
			l0.172,0.952h0.051c0.198-0.339,0.479-0.604,0.841-0.794c0.362-0.19,0.767-0.285,1.216-0.285c1.087,0,1.798,0.394,2.133,1.181
			h0.051c0.207-0.364,0.508-0.652,0.901-0.863c0.394-0.212,0.842-0.317,1.346-0.317c0.787,0,1.376,0.202,1.768,0.606
			s0.587,1.05,0.587,1.939v4.539H235.798z"/>
		<path class="st18" d="M238.934,329.447c0-0.241,0.06-0.418,0.178-0.53c0.119-0.112,0.267-0.168,0.444-0.168
			c0.17,0,0.315,0.058,0.438,0.172c0.122,0.114,0.184,0.29,0.184,0.526c0,0.237-0.062,0.414-0.184,0.53
			c-0.123,0.116-0.269,0.175-0.438,0.175c-0.178,0-0.325-0.059-0.444-0.175C238.993,329.861,238.934,329.685,238.934,329.447z
			 M240.076,338.29h-1.054v-6.957h1.054V338.29z"/>
		<path class="st18" d="M244.558,337.547c0.187,0,0.366-0.014,0.54-0.041c0.173-0.027,0.311-0.056,0.412-0.086v0.807
			c-0.114,0.055-0.282,0.101-0.505,0.136c-0.222,0.036-0.422,0.054-0.6,0.054c-1.346,0-2.019-0.709-2.019-2.127v-4.139h-0.996
			v-0.508l0.996-0.438l0.444-1.485h0.609v1.612h2.019v0.818h-2.019v4.095c0,0.419,0.1,0.74,0.299,0.965
			C243.938,337.435,244.211,337.547,244.558,337.547z"/>
		<path class="st18" d="M249.147,337.547c0.186,0,0.366-0.014,0.539-0.041c0.174-0.027,0.312-0.056,0.413-0.086v0.807
			c-0.114,0.055-0.282,0.101-0.505,0.136c-0.222,0.036-0.422,0.054-0.6,0.054c-1.346,0-2.019-0.709-2.019-2.127v-4.139h-0.997
			v-0.508l0.997-0.438l0.444-1.485h0.609v1.612h2.019v0.818h-2.019v4.095c0,0.419,0.1,0.74,0.298,0.965
			C248.527,337.435,248.8,337.547,249.147,337.547z"/>
		<path class="st18" d="M254.429,338.417c-1.028,0-1.84-0.313-2.435-0.939c-0.595-0.626-0.892-1.496-0.892-2.609
			c0-1.121,0.275-2.012,0.828-2.672c0.552-0.66,1.294-0.99,2.225-0.99c0.872,0,1.562,0.286,2.069,0.86s0.762,1.33,0.762,2.269v0.667
			h-4.792c0.021,0.816,0.228,1.437,0.618,1.859c0.392,0.423,0.943,0.635,1.654,0.635c0.749,0,1.489-0.156,2.222-0.47v0.939
			c-0.373,0.161-0.725,0.276-1.058,0.346C255.299,338.382,254.898,338.417,254.429,338.417z M254.143,332.088
			c-0.559,0-1.004,0.182-1.336,0.546c-0.332,0.364-0.528,0.868-0.587,1.511h3.637c0-0.664-0.147-1.173-0.444-1.526
			C255.116,332.265,254.693,332.088,254.143,332.088z"/>
		<path class="st18" d="M263.544,338.29v-4.501c0-0.567-0.129-0.99-0.388-1.27c-0.258-0.279-0.662-0.419-1.212-0.419
			c-0.729,0-1.262,0.197-1.6,0.591c-0.339,0.394-0.508,1.043-0.508,1.948v3.65h-1.054v-6.957h0.856l0.172,0.952h0.051
			c0.216-0.343,0.519-0.608,0.907-0.797c0.39-0.188,0.823-0.282,1.302-0.282c0.838,0,1.468,0.202,1.892,0.606
			c0.423,0.404,0.635,1.05,0.635,1.939v4.539H263.544z"/>
		<path class="st18" d="M269.009,337.547c0.187,0,0.366-0.014,0.54-0.041c0.173-0.027,0.311-0.056,0.412-0.086v0.807
			c-0.114,0.055-0.282,0.101-0.505,0.136c-0.222,0.036-0.422,0.054-0.6,0.054c-1.346,0-2.019-0.709-2.019-2.127v-4.139h-0.996
			v-0.508l0.996-0.438l0.444-1.485h0.609v1.612h2.019v0.818h-2.019v4.095c0,0.419,0.1,0.74,0.299,0.965
			C268.389,337.435,268.662,337.547,269.009,337.547z"/>
	</g>
	<g>
		<path class="st18" d="M136.964,370.832v-9.28h1.079v9.28H136.964z"/>
		<path class="st18" d="M145.19,370.832v-4.501c0-0.567-0.129-0.99-0.387-1.27s-0.662-0.419-1.212-0.419
			c-0.728,0-1.261,0.197-1.6,0.591s-0.508,1.043-0.508,1.948v3.65h-1.054v-6.957h0.857l0.171,0.952h0.051
			c0.216-0.343,0.519-0.608,0.908-0.797s0.823-0.282,1.301-0.282c0.838,0,1.468,0.202,1.892,0.606s0.635,1.05,0.635,1.939v4.539
			H145.19z"/>
		<path class="st18" d="M152.896,368.934c0,0.647-0.241,1.147-0.724,1.498c-0.482,0.352-1.16,0.527-2.031,0.527
			c-0.922,0-1.642-0.146-2.158-0.438v-0.978c0.334,0.169,0.693,0.303,1.076,0.4c0.383,0.097,0.752,0.146,1.108,0.146
			c0.55,0,0.973-0.088,1.27-0.263s0.444-0.443,0.444-0.803c0-0.271-0.118-0.502-0.352-0.695c-0.235-0.193-0.693-0.42-1.375-0.682
			c-0.647-0.241-1.108-0.452-1.38-0.632c-0.273-0.18-0.477-0.384-0.609-0.612c-0.134-0.229-0.2-0.502-0.2-0.819
			c0-0.567,0.23-1.015,0.692-1.342s1.094-0.492,1.898-0.492c0.749,0,1.481,0.152,2.196,0.457l-0.375,0.856
			c-0.698-0.288-1.331-0.432-1.898-0.432c-0.5,0-0.876,0.079-1.13,0.235c-0.254,0.156-0.381,0.372-0.381,0.647
			c0,0.186,0.048,0.345,0.143,0.476c0.096,0.131,0.249,0.256,0.46,0.375c0.211,0.118,0.618,0.29,1.219,0.514
			c0.825,0.301,1.383,0.604,1.672,0.908C152.751,368.09,152.896,368.473,152.896,368.934z"/>
		<path class="st18" d="M160.615,367.347c0,1.134-0.286,2.02-0.857,2.657s-1.36,0.956-2.368,0.956c-0.622,0-1.174-0.146-1.657-0.438
			s-0.855-0.711-1.117-1.257s-0.394-1.185-0.394-1.917c0-1.134,0.284-2.018,0.851-2.65s1.354-0.949,2.361-0.949
			c0.973,0,1.747,0.323,2.32,0.971C160.329,365.366,160.615,366.242,160.615,367.347z M155.315,367.347
			c0,0.889,0.178,1.566,0.533,2.031c0.355,0.466,0.878,0.698,1.568,0.698s1.213-0.231,1.571-0.695
			c0.357-0.463,0.536-1.142,0.536-2.035c0-0.884-0.179-1.556-0.536-2.015c-0.358-0.459-0.886-0.689-1.584-0.689
			c-0.69,0-1.21,0.227-1.562,0.68C155.491,365.775,155.315,366.45,155.315,367.347z"/>
		<path class="st18" d="M163.516,370.832h-1.054v-9.877h1.054V370.832z"/>
		<path class="st18" d="M167.274,370.832l-2.641-6.957h1.13l1.498,4.126c0.338,0.965,0.538,1.591,0.597,1.879h0.051
			c0.046-0.225,0.193-0.689,0.441-1.394c0.247-0.705,0.803-2.242,1.666-4.611h1.13l-2.641,6.957H167.274z"/>
		<path class="st18" d="M175.202,370.959c-1.028,0-1.84-0.313-2.434-0.939c-0.595-0.626-0.892-1.496-0.892-2.609
			c0-1.121,0.276-2.012,0.829-2.672c0.552-0.66,1.293-0.99,2.225-0.99c0.872,0,1.562,0.286,2.069,0.86s0.762,1.33,0.762,2.269v0.667
			h-4.792c0.021,0.816,0.228,1.437,0.619,1.859c0.392,0.423,0.943,0.635,1.654,0.635c0.749,0,1.49-0.156,2.222-0.47v0.939
			c-0.373,0.161-0.725,0.276-1.057,0.346C176.073,370.924,175.672,370.959,175.202,370.959z M174.917,364.63
			c-0.559,0-1.004,0.182-1.336,0.546c-0.333,0.364-0.528,0.868-0.587,1.511h3.637c0-0.664-0.148-1.173-0.444-1.526
			S175.467,364.63,174.917,364.63z"/>
		<path class="st18" d="M184.317,370.832v-4.501c0-0.567-0.129-0.99-0.388-1.27c-0.258-0.279-0.662-0.419-1.212-0.419
			c-0.728,0-1.261,0.197-1.6,0.591s-0.508,1.043-0.508,1.948v3.65h-1.054v-6.957h0.857l0.171,0.952h0.051
			c0.216-0.343,0.519-0.608,0.908-0.797s0.823-0.282,1.301-0.282c0.838,0,1.468,0.202,1.892,0.606
			c0.423,0.404,0.635,1.05,0.635,1.939v4.539H184.317z"/>
		<path class="st18" d="M191.985,370.832h-5.047v-0.718l3.796-5.421h-3.561v-0.818h4.716v0.818l-3.745,5.319h3.841V370.832z"/>
	</g>
	<g>
		<path class="st18" d="M70.77,328.739v3.859H69.69v-9.28h2.545c1.138,0,1.979,0.218,2.523,0.654
			c0.543,0.436,0.815,1.092,0.815,1.968c0,1.227-0.622,2.057-1.866,2.488l2.52,4.17h-1.276l-2.247-3.859H70.77z M70.77,327.813
			h1.479c0.762,0,1.32-0.151,1.676-0.454s0.533-0.756,0.533-1.362c0-0.613-0.181-1.056-0.543-1.326
			c-0.361-0.271-0.942-0.406-1.742-0.406H70.77V327.813z"/>
		<path class="st18" d="M80.507,332.726c-1.028,0-1.84-0.313-2.434-0.939c-0.595-0.626-0.892-1.496-0.892-2.608
			c0-1.122,0.276-2.013,0.829-2.673c0.552-0.66,1.293-0.99,2.225-0.99c0.872,0,1.562,0.287,2.069,0.86s0.762,1.33,0.762,2.27v0.666
			h-4.792c0.021,0.817,0.228,1.437,0.619,1.86c0.392,0.423,0.943,0.635,1.654,0.635c0.749,0,1.49-0.157,2.222-0.47v0.939
			c-0.373,0.161-0.725,0.276-1.057,0.346C81.377,332.691,80.977,332.726,80.507,332.726z M80.221,326.398
			c-0.559,0-1.004,0.182-1.336,0.546c-0.333,0.364-0.528,0.867-0.587,1.511h3.637c0-0.665-0.148-1.174-0.444-1.527
			S80.771,326.398,80.221,326.398z"/>
		<path class="st18" d="M89.622,332.599v-4.5c0-0.567-0.129-0.99-0.387-1.27s-0.662-0.419-1.212-0.419
			c-0.728,0-1.261,0.196-1.6,0.59s-0.508,1.043-0.508,1.949v3.649h-1.054v-6.957h0.857l0.171,0.952h0.051
			c0.216-0.343,0.519-0.608,0.908-0.796s0.823-0.283,1.301-0.283c0.838,0,1.468,0.202,1.892,0.606s0.635,1.051,0.635,1.939v4.538
			H89.622z"/>
		<path class="st18" d="M97.576,331.666h-0.057c-0.487,0.707-1.214,1.06-2.184,1.06c-0.91,0-1.618-0.311-2.124-0.933
			c-0.505-0.622-0.758-1.507-0.758-2.653c0-1.147,0.254-2.038,0.762-2.673s1.214-0.952,2.12-0.952c0.944,0,1.667,0.343,2.171,1.028
			h0.083l-0.044-0.501l-0.025-0.489v-2.831h1.054v9.877h-0.857L97.576,331.666z M95.468,331.844c0.719,0,1.241-0.196,1.564-0.587
			c0.324-0.391,0.486-1.023,0.486-1.895v-0.222c0-0.986-0.164-1.689-0.492-2.111c-0.328-0.421-0.852-0.631-1.571-0.631
			c-0.618,0-1.091,0.24-1.419,0.72c-0.328,0.48-0.492,1.159-0.492,2.035c0,0.889,0.163,1.559,0.489,2.012
			C94.359,331.617,94.838,331.844,95.468,331.844z"/>
		<path class="st18" d="M100.718,323.757c0-0.241,0.059-0.418,0.178-0.53s0.267-0.168,0.444-0.168c0.169,0,0.315,0.057,0.438,0.171
			s0.184,0.29,0.184,0.527c0,0.237-0.062,0.413-0.184,0.53s-0.269,0.174-0.438,0.174c-0.178,0-0.326-0.058-0.444-0.174
			S100.718,323.994,100.718,323.757z M101.86,332.599h-1.054v-6.957h1.054V332.599z"/>
		<path class="st18" d="M106.342,331.857c0.186,0,0.366-0.014,0.54-0.042s0.311-0.056,0.413-0.085v0.806
			c-0.114,0.055-0.282,0.101-0.505,0.137c-0.222,0.036-0.422,0.054-0.6,0.054c-1.346,0-2.019-0.708-2.019-2.126v-4.139h-0.997
			v-0.508l0.997-0.438l0.444-1.485h0.609v1.612h2.019v0.819h-2.019v4.094c0,0.419,0.1,0.741,0.298,0.965
			C105.722,331.744,105.995,331.857,106.342,331.857z"/>
		<path class="st18" d="M111.623,332.726c-1.028,0-1.84-0.313-2.434-0.939c-0.595-0.626-0.892-1.496-0.892-2.608
			c0-1.122,0.276-2.013,0.829-2.673c0.552-0.66,1.293-0.99,2.225-0.99c0.872,0,1.562,0.287,2.069,0.86s0.762,1.33,0.762,2.27v0.666
			h-4.792c0.021,0.817,0.228,1.437,0.619,1.86c0.392,0.423,0.943,0.635,1.654,0.635c0.749,0,1.49-0.157,2.222-0.47v0.939
			c-0.373,0.161-0.725,0.276-1.057,0.346C112.494,332.691,112.093,332.726,111.623,332.726z M111.337,326.398
			c-0.559,0-1.004,0.182-1.336,0.546c-0.333,0.364-0.528,0.867-0.587,1.511h3.637c0-0.665-0.148-1.174-0.444-1.527
			S111.888,326.398,111.337,326.398z"/>
	</g>
</g>
</svg>
